<svg width="32" height="32" viewBox="0 0 32 32" fill="none" xmlns="http://www.w3.org/2000/svg">
<path d="M23.4375 2H8.5625C4.93813 2 2 4.93813 2 8.5625V23.4375C2 27.0619 4.93813 30 8.5625 30H23.4375C27.0619 30 30 27.0619 30 23.4375V8.5625C30 4.93813 27.0619 2 23.4375 2Z" fill="#330000"/>
<path d="M15.5333 18.6614H11.1933L10.3066 21.4031C10.2833 21.5081 10.19 21.5781 10.085 21.5664H7.8916C7.7633 21.5664 7.7283 21.4964 7.7633 21.3564L11.52 10.5414C11.555 10.4248 11.59 10.2964 11.6366 10.1564C11.6833 9.91142 11.7066 9.65483 11.7066 9.39813C11.695 9.33983 11.7416 9.28142 11.8 9.26983H14.8216C14.915 9.26983 14.9616 9.30483 14.9733 9.36313L19.2316 21.3798C19.2666 21.5081 19.2316 21.5664 19.115 21.5664H16.6766C16.595 21.5781 16.5133 21.5198 16.49 21.4381L15.5333 18.6614ZM11.87 16.2931H14.8333C14.7633 16.0481 14.67 15.7564 14.565 15.4531C14.46 15.1381 14.355 14.7998 14.25 14.4498C14.1333 14.0881 14.0283 13.7381 13.9116 13.3764C13.795 13.0148 13.69 12.6764 13.5966 12.3381C13.5033 12.0115 13.4216 11.7081 13.34 11.4281H13.3166C13.2116 11.9298 13.0833 12.4315 12.92 12.9331C12.745 13.4931 12.57 14.0764 12.3833 14.6598C12.2326 15.2105 12.0614 15.7553 11.87 16.2931ZM21.8333 11.3114C21.4483 11.3231 21.075 11.1714 20.795 10.9031C20.5267 10.6114 20.3867 10.2264 20.3983 9.82983C20.3867 9.43313 20.5383 9.05983 20.8183 8.79142C21.0983 8.52313 21.4717 8.38313 21.8567 8.38313C22.3117 8.38313 22.6617 8.52313 22.9183 8.79142C23.1769 9.07428 23.315 9.44678 23.3033 9.82983C23.315 10.2264 23.175 10.6114 22.895 10.9031C22.6267 11.1831 22.23 11.3348 21.8333 11.3114ZM20.5267 21.4381V12.4548C20.5267 12.3381 20.5733 12.2914 20.6783 12.2914H22.9883C23.0933 12.2914 23.14 12.3498 23.14 12.4548V21.4381C23.14 21.5664 23.0933 21.6248 22.9883 21.6248H20.7017C20.585 21.6248 20.5267 21.5548 20.5267 21.4381Z" fill="#FF9A00"/>
</svg>
