<svg width="32" height="32" viewBox="0 0 32 32" fill="none" xmlns="http://www.w3.org/2000/svg">
<path d="M2 9C2 5.13401 5.13401 2 9 2H23C26.866 2 30 5.13401 30 9V23C30 26.866 26.866 30 23 30H9C5.13401 30 2 26.866 2 23V9Z" fill="#1572B6"/>
<path d="M20.09 14.191H16V17.282H19.8152L19.455 21.29L16.008 22.22V25.436L22.344 23.68L23.75 7.935H16V11.026H20.372L20.09 14.191Z" fill="white"/>
<path d="M16.011 11.026V7.935H8.26801L8.54501 11.026H16.011Z" fill="#EBEBEB"/>
<path d="M16 17.282V14.191H12.325L12.601 17.282H16Z" fill="#EBEBEB"/>
<path d="M16.005 22.222L16.019 22.218V25.434L16.004 25.438L9.67299 23.68L9.23999 18.827H12.343L12.563 21.292L16.005 22.222Z" fill="#EBEBEB"/>
</svg>
