<svg width="32" height="32" viewBox="0 0 32 32" fill="none" xmlns="http://www.w3.org/2000/svg">
<path d="M23.4375 2H8.5625C4.93813 2 2 4.93813 2 8.5625V23.4375C2 27.0619 4.93813 30 8.5625 30H23.4375C27.0619 30 30 27.0619 30 23.4375V8.5625C30 4.93813 27.0619 2 23.4375 2Z" fill="#E5E5E5"/>
<path d="M27 21.6765C26.6798 21.7904 26.3262 21.7902 26.0062 21.6758C25.6861 21.5614 25.4217 21.3408 25.263 21.0556C24.2661 19.6529 23.1652 18.3135 22.1071 16.9454L21.6483 16.3705C20.3883 17.9571 19.1284 19.4805 17.9786 21.0614C17.8288 21.334 17.5787 21.546 17.2749 21.6582C16.9711 21.7703 16.6343 21.7747 16.3273 21.6708L21.0551 15.7095L16.6575 10.3229C16.974 10.2155 17.3203 10.214 17.6379 10.3187C17.9555 10.4235 18.2249 10.628 18.4006 10.8978C19.422 12.3005 20.5536 13.6399 21.6789 15.0599C22.8104 13.6514 23.9297 12.3062 24.9756 10.915C25.1262 10.6469 25.3764 10.4402 25.6786 10.3342C25.9809 10.2282 26.314 10.2303 26.6147 10.3402L24.9082 12.4672C24.1437 13.4157 23.3914 14.37 22.5964 15.2955C22.5323 15.3494 22.481 15.4154 22.4459 15.4892C22.4107 15.563 22.3926 15.643 22.3926 15.7238C22.3926 15.8046 22.4107 15.8846 22.4459 15.9584C22.481 16.0322 22.5323 16.0982 22.5964 16.1521C24.0582 17.9744 25.5076 19.8024 27 21.6765ZM5 15.6347C5.12848 15.0599 5.2079 14.4332 5.38533 13.8469C6.44342 10.3116 10.7553 8.83981 13.7217 11.0301C15.4587 12.3121 15.893 14.1287 15.8074 16.1751H6.02146C5.8624 19.8313 8.66971 22.0387 12.2599 20.912C12.8423 20.7162 13.3636 20.3871 13.7768 19.9546C14.1901 19.522 14.4822 18.9995 14.6269 18.4343C14.8165 17.8594 15.1223 17.7617 15.7033 17.9284C15.6077 18.6283 15.3444 19.2986 14.9334 19.889C14.5224 20.4795 13.9743 20.9747 13.3303 21.3373C12.2663 21.8842 11.0456 22.1009 9.84274 21.9564C8.63985 21.8118 7.5164 21.3135 6.63306 20.5326C5.75914 19.609 5.23073 18.4421 5.12848 17.2099C5.12848 17.0144 5.04895 16.8189 5.00616 16.635C5.00211 16.3016 5.00006 15.9682 5 15.6347ZM6.03367 15.3875H14.8838C14.8287 12.7375 13.0489 10.8577 10.6759 10.8405C8.03369 10.806 6.14378 12.6454 6.02751 15.376L6.03367 15.3875Z" fill="#0F0F0F"/>
</svg>
