<svg width="32" height="32" viewBox="0 0 32 32" fill="none" xmlns="http://www.w3.org/2000/svg">
<path d="M2 9C2 5.13401 5.13401 2 9 2H23C26.866 2 30 5.13401 30 9V23C30 26.866 26.866 30 23 30H9C5.13401 30 2 26.866 2 23V9Z" fill="#0361F9"/>
<path d="M16.952 19.15V30H21.32V19.108H24.974L25.52 14.908H21.32V12.206C21.32 10.988 21.656 10.148 23.42 10.148H25.646V6.368C24.5628 6.24939 23.4737 6.19329 22.384 6.2C21.6425 6.14715 20.8984 6.25717 20.204 6.52233C19.5095 6.7875 18.8814 7.20139 18.3639 7.73498C17.8463 8.26856 17.4517 8.90893 17.2078 9.61115C16.9639 10.3134 16.8766 11.0605 16.952 11.8V14.95H13.312V19.15H16.952Z" fill="white"/>
</svg>
