<svg width="32" height="32" viewBox="0 0 32 32" fill="none" xmlns="http://www.w3.org/2000/svg">
<path d="M23.4375 2H8.5625C4.93813 2 2 4.93813 2 8.5625V23.4375C2 27.0619 4.93813 30 8.5625 30H23.4375C27.0619 30 30 27.0619 30 23.4375V8.5625C30 4.93813 27.0619 2 23.4375 2Z" fill="#3E3E3E"/>
<path d="M12.4643 27C14.416 27 16 25.3573 16 23.3333V19.6667H12.4643C10.5126 19.6667 8.92857 21.3093 8.92857 23.3333C8.92857 25.3573 10.5126 27 12.4643 27Z" fill="#0ACF83"/>
<path d="M8.92857 16C8.92857 13.976 10.5126 12.3333 12.4643 12.3333H16V19.6667H12.4643C10.5126 19.6667 8.92857 18.024 8.92857 16Z" fill="#A259FF"/>
<path d="M8.92857 8.66667C8.92857 6.64267 10.5126 5 12.4643 5H16V12.3333H12.4643C10.5126 12.3333 8.92857 10.6907 8.92857 8.66667Z" fill="#F24E1E"/>
<path d="M16 5H19.5357C21.4874 5 23.0714 6.64267 23.0714 8.66667C23.0714 10.6907 21.4874 12.3333 19.5357 12.3333H16V5Z" fill="#FF7262"/>
<path d="M23.0714 16C23.0714 18.024 21.4874 19.6667 19.5357 19.6667C17.584 19.6667 16 18.024 16 16C16 13.976 17.584 12.3333 19.5357 12.3333C21.4874 12.3333 23.0714 13.976 23.0714 16Z" fill="#1ABCFE"/>
</svg>
