<svg width="32" height="32" viewBox="0 0 32 32" fill="none" xmlns="http://www.w3.org/2000/svg">
<path d="M2 9C2 5.13401 5.13401 2 9 2H23C26.866 2 30 5.13401 30 9V23C30 26.866 26.866 30 23 30H9C5.13401 30 2 26.866 2 23V9Z" fill="black"/>
<path d="M12.425 29.252C12.425 29.6559 11.4161 30 11.4161 30H21.0928C21.0928 30 20.0686 29.6559 20.0686 29.252V25.1527C20.0686 23.7613 19.5641 22.8487 19.0138 22.385C22.4228 22.0109 26 20.7542 26 15.0392C26 13.3786 25.4191 12.047 24.4254 10.9848C24.5783 10.6108 25.1133 9.05488 24.2726 7.03517C24.2726 7.03517 22.9884 6.63123 20.0686 8.56117C18.8609 8.23204 17.5462 8.06747 16.2468 8.06747C14.9474 8.06747 13.6327 8.23204 12.425 8.56117C9.50521 6.63123 8.22109 7.03517 8.22109 7.03517C7.3803 9.05488 7.91535 10.6108 8.06822 10.9848C7.07456 12.047 6.49364 13.3786 6.49364 15.0392C6.49364 20.7393 10.0555 22.0259 13.4493 22.3999C13.0212 22.7739 12.6238 23.4322 12.4862 24.4047C11.6148 24.7637 9.36762 25.437 8.03764 23.1629C8.03764 23.1629 7.22743 21.7267 5.69871 21.622C5.69871 21.622 4.20058 21.592 5.59171 22.5196C5.59171 22.5196 6.58537 22.9834 7.28857 24.7188C7.28857 24.7188 8.19051 27.6212 12.425 26.7236V29.252Z" fill="white"/>
</svg>
