<svg width="32" height="32" viewBox="0 0 32 32" fill="none" xmlns="http://www.w3.org/2000/svg">
<path d="M2 9C2 5.13401 5.13401 2 9 2H23C26.866 2 30 5.13401 30 9V23C30 26.866 26.866 30 23 30H9C5.13401 30 2 26.866 2 23V9Z" fill="#5895B2"/>
<path d="M6.594 14.2951L6.764 14.5481C6.424 14.5381 6.068 14.5051 6 14.3591C6 14.3524 6.00133 14.3454 6.004 14.3381C6.194 14.2881 6.357 14.2851 6.594 14.2951ZM8.4 15.0651L8.482 15.3151L8.29 15.3231L8.336 15.0671L8.4 15.0651ZM9.054 16.8901C8.884 17.0461 8.753 17.1501 8.652 17.3871C8.512 17.2721 8.439 17.0441 8.394 16.7891C8.344 16.5111 8.328 16.2021 8.29 15.9711L8.302 15.8531L8.499 15.8391L9.001 16.7891L9.054 16.8891V16.8901ZM8.8 14.5481L8.877 14.0361L8.942 14.0321L8.8 14.5481ZM8.663 12.2261L9.563 12.4701L9.559 12.5101C9.14 12.8201 8.753 12.9561 8.545 13.5161L8.624 12.2701L8.663 12.2261ZM9.503 10.9361C9.445 11.5161 9.527 11.7721 9.628 12.1321C9.788 12.2461 9.852 12.3151 9.8 12.4841C9.53 12.3501 9.244 12.2101 8.83 12.2321L8.8 12.1971C8.916 11.7401 9.142 11.4591 9.317 11.0971L9.504 10.9351L9.503 10.9361ZM10.797 10.1641L10.836 10.1611C10.712 10.5891 10.662 11.5761 10.445 11.9681C9.932 11.7251 9.942 10.6721 10.516 10.2561L10.797 10.1641ZM10.319 13.3341L10.751 13.8031C10.581 14.3251 10.26 14.7181 10.124 15.3231L9.869 15.3031C9.651 14.6941 10.196 13.7021 10.289 13.2581L10.689 13.3041L10.836 13.6801L10.319 13.3341ZM11.501 10.1601C11.457 10.6671 11.569 10.9301 11.599 11.3221L10.836 11.7091C10.8837 11.1844 11.0095 10.6697 11.209 10.1821L11.501 10.1601ZM11.797 9.39006L11.854 9.38606L11.768 9.63306L11.599 9.64406L11.729 9.49106L11.797 9.39006ZM11.854 11.7551L11.09 12.2251C11.106 11.9411 11.468 11.5581 11.771 11.4521L11.841 11.4901L11.854 11.7551ZM12.364 9.97706L12.226 10.7621L12.083 10.8521L12.007 10.9351C11.869 10.7411 11.834 10.2651 11.864 9.90306L12.364 9.97706ZM12.872 9.38706C12.872 9.39639 12.871 9.40506 12.869 9.41306L12.674 9.60006C12.544 9.65006 12.528 9.64806 12.364 9.64206L12.432 9.38706H12.872ZM13.382 8.35506L13.154 8.87006L12.364 8.81306L12.367 8.77106C12.692 8.62106 12.977 8.44306 13.381 8.35406L13.382 8.35506ZM12.97 9.69506L13.054 9.64506L13.127 9.90306L12.872 9.85306L12.97 9.69506ZM13.636 10.4581C13.333 10.5761 12.914 10.5431 12.671 10.6781L12.618 10.3681L12.776 10.1611C13.0333 10.2611 13.29 10.3621 13.546 10.4641L13.636 10.4581ZM12.985 10.9221L12.639 10.9351L12.618 10.8261C12.861 10.7271 13.269 10.7181 13.636 10.6771L13.249 10.8901L12.985 10.9221ZM13.89 10.9221C13.599 10.9951 13.32 11.2521 13.129 11.4521C13.092 11.2181 13.541 10.8061 13.756 10.6771C13.851 10.7621 13.861 10.7531 13.89 10.9221ZM14.4 7.83906L14.396 7.87906L14.09 8.06406L13.636 8.09706L13.64 8.05706L14.4 7.83906ZM13.988 8.61306L13.89 8.46806C14.12 8.27506 14.627 8.38106 14.909 8.41006L13.988 8.61306ZM16.266 7.85306C16.691 7.88806 17.08 7.98806 17.376 8.17306L17.454 8.16806L17.407 8.23406L17 8.35406L16.266 8.24906L14.654 8.02006L14.658 7.98706C15.1843 7.86245 15.7264 7.81762 16.266 7.85406V7.85306ZM17.959 7.71706L17.869 7.83906C17.625 7.82161 17.3917 7.73178 17.199 7.58106L17.963 7.67806L17.959 7.71706ZM19.315 8.67106L19.526 8.59106L19.745 8.77906C19.715 8.99406 19.508 9.17006 19.349 9.37906L19.227 9.38706C18.895 8.83706 18.476 8.23606 17.741 8.02406L17.709 7.95906L18.006 7.83906C18.505 8.01306 18.921 8.27706 19.384 8.42906C19.444 8.57406 19.425 8.52506 19.314 8.67106H19.315ZM19.929 9.89406L19.871 9.83706L19.745 9.84606L19.955 9.64606L19.929 9.89406ZM20.154 12.7421C20.498 13.0401 20.586 13.4721 20.443 14.0321L19.999 13.0351L20.145 12.8131L20.154 12.7421ZM20.254 10.4221L20.25 10.4701L20.069 10.6771L19.999 10.5401C20.108 10.3451 20.029 10.4501 20.172 10.4301L20.254 10.4221ZM20.466 10.4191L21.272 10.7181L21.265 10.7981C21.197 10.8447 21.129 10.8904 21.061 10.9351L20.254 10.6371L20.261 10.5561L20.466 10.4191ZM22.036 11.4521L21.589 11.1551L21.527 11.0351C21.721 10.9151 21.693 10.9211 21.898 10.9611C21.9433 11.1251 21.9893 11.2894 22.036 11.4521ZM22.29 11.3541L22.2 11.4521C22.092 11.3961 22.073 11.3251 22.036 11.1931L22.269 11.2951L22.29 11.3541ZM22.1 10.6151L22.036 10.6201L22.248 10.4201C22.1973 10.4854 22.148 10.5504 22.1 10.6151ZM23.309 11.9131L23.184 11.9681L22.503 11.5851L22.29 11.2951C22.643 11.0351 22.656 11.3371 22.989 11.5021L23.309 11.9131ZM23.563 12.1411L23.309 12.0481L23.462 11.9681L23.563 12.1411ZM23.253 12.5571C23.345 12.7421 23.345 12.6901 23.563 12.6621L23.172 13.0001L22.799 12.2881L22.804 12.2441C23.079 12.1851 23.167 12.2841 23.436 12.3241L23.539 12.4901L23.253 12.5571ZM23.309 13.0201L23.818 12.7421C23.716 12.9721 23.583 13.0901 23.426 13.2581L23.309 13.0201ZM24.327 14.0051C24.189 14.1241 24.099 14.1621 23.838 14.1841L24.048 14.2071L24.044 14.2441L23.327 14.5481L23.309 13.6281L23.803 13.0431L23.893 13.0001L24.327 14.0051ZM24.072 12.5931C25.478 12.2011 25.206 12.9471 24.579 13.5161C24.409 13.2094 24.24 12.9017 24.072 12.5931ZM25.345 12.7421C24.827 15.1761 24.727 15.3091 22.895 16.3551C22.8644 16.3058 22.8324 16.2575 22.799 16.2101L22.864 15.9381C24.059 15.5981 24.738 14.9721 24.667 13.5551L25.266 12.7851L25.345 12.7421ZM25.407 12.7421L25.345 12.4901L25.535 12.4841L25.407 12.7421ZM22.29 15.1091L22.308 14.8401L22.324 14.6101L22.5 14.5511C22.5087 14.5511 22.517 14.5501 22.525 14.5481C22.575 14.8531 22.525 15.0781 22.425 15.3231C22.339 15.2681 22.322 15.2451 22.29 15.1091ZM21.272 17.3671L21.276 17.3221L21.61 16.5231L21.68 16.3551L22.268 16.3951C22.2767 16.4391 22.2827 16.4817 22.286 16.5231C22.312 16.8271 22.207 17.0701 22.099 17.3871L21.272 17.3671ZM21.527 18.4031L21.534 18.0031L21.544 17.9031L21.974 17.9351L22.036 17.9301C21.9367 18.0927 21.8387 18.2561 21.742 18.4201L21.527 18.4031ZM21.275 16.7331L21.301 16.7201L21.504 16.6151L21.527 16.6131L21.497 16.7201L21.378 17.1291L21.272 16.7651L21.275 16.7331ZM20.878 18.0181L20.763 17.9031C20.875 17.9811 20.802 17.9051 20.878 18.0181ZM20.254 17.7111C20.397 17.6211 20.552 17.6491 20.764 17.6511L20.701 17.8581C20.526 17.9281 20.501 17.9021 20.304 17.8811L20.254 17.7111ZM20.566 18.6771L20.763 19.1431L20.306 19.4521C20.17 19.2651 20.318 18.7421 20.566 18.6771ZM20.063 17.0571L19.999 17.0621L20.083 16.8711L20.063 17.0571ZM20.796 17.1291L20.763 17.1081L20.875 16.8721L20.912 16.8711L21.018 17.1191L20.796 17.1291ZM22.559 13.7741L22.545 13.6871C22.612 13.6051 22.655 13.5541 22.77 13.5171L22.8 13.6691L22.651 13.7681L22.559 13.7741ZM22.545 14.4041C22.499 14.4651 22.417 14.4991 22.359 14.5481L22.29 13.2581L22.545 14.4041ZM22.078 16.1341C22.246 16.0401 22.27 16.1271 22.29 16.3541H21.781L21.79 16.2741L22.078 16.1341ZM21.828 15.4211L21.943 15.3231L22.036 15.4891L21.993 15.5811L21.781 15.5561L21.828 15.4211ZM21.781 16.1051L21.516 16.3551L21.343 16.3261L21.273 16.3331C21.313 16.2537 21.354 16.1751 21.396 16.0971L21.781 16.1051ZM20.821 15.9581C20.715 15.8841 20.791 15.8941 20.771 15.8381L20.821 15.9581ZM21.623 14.8061L20.763 14.3601C20.803 13.7701 20.875 13.0921 20.817 12.4841C21.48 12.7241 22.075 13.8031 21.623 14.8061ZM21.018 14.8061C21.229 14.9181 21.218 15.0201 21.511 15.1101C21.562 15.3011 21.484 15.3771 21.362 15.5801L21.05 15.5681C20.986 15.2281 21.056 15.0331 21.018 14.8061ZM21.076 16.4751C20.969 16.4011 21.046 16.4111 21.026 16.3551L21.076 16.4751ZM22.799 13.9911L22.802 13.9431L23.032 13.7741C23.072 14.0381 23.057 14.4781 22.997 14.8061C22.861 14.7001 22.836 14.2521 22.799 13.9911ZM22.799 14.8061L22.953 14.5481L22.863 14.8021L22.799 14.8061ZM24.284 14.0351L24.327 14.0321C24.339 15.0211 23.729 15.2011 22.927 15.5721L22.799 15.5811L23.299 14.5451L24.284 14.0351ZM22.774 12.1031L22.798 12.1801L22.735 12.2261L22.544 11.9681L22.774 12.1031ZM22.544 12.5331L22.551 12.4881L22.607 12.4841L22.799 12.7421C22.651 12.6721 22.627 12.6551 22.544 12.5331ZM22.798 13.1931L22.455 13.5161L21.718 12.4461L20.762 11.6161L20.972 11.4521C21.435 11.6521 22.245 12.0331 22.408 12.5091C22.461 12.6641 22.278 12.7921 22.402 12.9211C22.55 13.0751 22.698 12.9651 22.799 13.1921L22.798 13.1931ZM20.65 14.8061L20.728 14.8371L20.762 15.5811L20.643 15.5531C20.531 15.4701 20.453 15.0861 20.555 14.9191L20.65 14.8061ZM20.086 16.1001L20.168 16.0971L20.253 16.2991L20.123 16.3491L19.998 16.3551C20.0287 16.2697 20.058 16.1847 20.086 16.1001ZM19.854 20.2261L19.744 19.8491C19.9007 19.8044 20.0573 19.7587 20.214 19.7121L20.254 19.7101L20.249 19.7451L19.854 20.2261ZM19.489 19.1941C19.536 19.0421 19.569 19.0191 19.654 18.9351L19.724 18.9631L19.744 19.0291L19.587 19.1831L19.489 19.1931V19.1941ZM19.609 19.4521L19.489 19.3201L19.744 19.1941L19.678 19.4471L19.609 19.4521ZM19.341 20.6221C19.3057 20.5941 19.2703 20.5651 19.235 20.5351L19.313 20.5301L19.706 20.2261L19.744 20.5361L19.443 20.7421L19.341 20.6221ZM19.361 23.5781C18.748 23.6041 18.381 23.4481 17.881 23.4041L17.308 22.2711L17.198 22.1571C18.16 22.0431 18.765 21.5791 19.478 21.2581C19.73 21.4981 20.301 22.7201 19.798 23.2611C19.678 23.4461 19.544 23.4651 19.361 23.5781ZM16.729 22.3051L16.959 22.2901C17.306 22.5231 17.542 22.9401 17.708 23.3231L16.689 23.0281C16.765 22.7701 16.797 22.5081 16.729 22.3051ZM15.997 21.3311L17.145 21.0001L18.949 21.1761L18.981 21.2671C18.444 21.5091 17.833 21.7131 17.217 22.0251C16.55 22.0781 16.389 21.8291 15.927 21.6651L15.997 21.3311ZM15.926 22.5471L15.949 22.3231L16.388 22.2901C16.424 22.4851 16.462 22.5941 16.408 22.8061L15.926 22.5461V22.5471ZM15.416 22.9511L15.587 22.8571C15.797 22.7181 15.954 22.9031 16.18 22.9761L16.09 23.0641L15.416 22.9511ZM15.911 22.5481L15.745 22.4731L15.671 22.2901L15.926 22.3061L15.911 22.5481ZM15.162 22.5481L15.417 22.7671C15.417 22.9021 15.405 22.8871 15.374 23.0641L15.162 22.5481ZM14.502 21.5811C14.741 21.5081 15.059 21.5241 15.417 21.5161L15.084 21.7741L14.399 21.7071L14.502 21.5811ZM13.89 8.64806C14.363 8.19606 15.549 8.33106 15.846 8.61806L15.926 8.61106C15.531 8.98006 14.919 9.02206 14.543 9.38706C14.248 9.19106 14.004 9.06506 13.89 8.64806ZM16.49 9.38706L16.69 9.61406C16.512 9.62406 16.325 9.63506 16.138 9.65106C15.717 9.68706 15.301 9.75006 15.01 9.90106L14.972 9.90306L14.909 9.80406C15.3866 9.55336 15.914 9.41195 16.453 9.39006L16.49 9.38706ZM17.482 8.09706C17.811 8.42706 18.302 8.62306 18.472 9.12906C17.782 8.80806 16.72 8.81306 16.182 8.30206C16.656 8.40306 17.06 8.36506 17.482 8.09706ZM17.709 9.90306L18.653 10.0331L18.727 10.0271L17.97 10.6771C17.85 10.4381 17.822 10.1141 17.709 9.90306ZM18.922 11.0071L18.727 10.9771L18.981 10.9351L18.921 11.0071H18.922ZM18.727 10.3901L18.96 10.1611L18.981 10.4191L18.812 10.3821L18.727 10.3901ZM19.189 18.9301L19.077 18.9351L18.981 18.8451L19.055 18.7481L19.235 18.6781L19.189 18.9301ZM18.986 19.4021L19.08 19.2941L19.088 19.1941L19.236 19.4291L18.981 19.4521L18.986 19.4021ZM18.885 20.2261L18.727 20.0361L19.236 19.9681L18.993 20.2181L18.885 20.2261ZM18.981 21.0001L18.472 20.9391L18.832 20.7421L18.981 21.0001ZM18.624 20.2721L18.727 20.3701L18.358 20.4641L17.963 20.4841L18.513 20.2261L18.624 20.2721ZM17.2 9.12906C17.497 9.13706 17.811 9.21206 17.963 9.38706C17.758 9.36706 17.389 9.40006 17.296 9.24206L17.2 9.12906ZM17.458 10.1611C17.603 10.2881 17.654 10.4381 17.628 10.6771C17.404 10.6001 17.462 10.3551 17.458 10.1611ZM17.708 11.7881L17.717 11.7441C18.224 11.6341 18.333 11.8101 18.102 11.9681C17.902 11.9401 17.811 11.8651 17.708 11.7881ZM18.361 18.4191L18.472 18.4471L18.468 18.4831L18.218 18.6771L18.322 18.4221L18.361 18.4191ZM18.221 12.1251L18.411 11.9681L18.472 12.2261L18.218 12.1701L18.221 12.1251ZM18.981 19.0251L18.366 19.1861L18.218 19.1931C18.218 19.1851 18.2193 19.1767 18.222 19.1681C18.452 19.1221 18.6 19.0461 18.736 18.9351L18.952 18.9751L18.981 19.0251ZM18.542 18.4191L18.472 18.2761L18.647 18.1611L18.727 18.2041L18.627 18.4121L18.542 18.4191ZM16.945 20.2041L17.248 19.9681L18.186 20.0481L18.218 20.1181L17.584 20.4841C17.349 20.4451 17.146 20.3411 17.024 20.1981L16.945 20.2041ZM16.474 20.2261L16.944 20.4841L16.181 20.3491C16.2783 20.3091 16.376 20.2681 16.474 20.2261ZM16.436 20.7531L16.433 20.8151L16.288 20.8951L16.181 20.9091L16.185 20.8471C16.296 20.7001 16.277 20.7491 16.435 20.7531H16.436ZM15.236 10.2501L15.163 10.1731C15.416 10.0351 15.815 9.96906 16.207 9.93806C16.53 9.91106 16.848 9.90806 17.076 9.90306L17.2 10.6771C16.867 10.6411 16.55 10.5971 16.207 10.5821C15.9106 10.5664 15.6135 10.5771 15.319 10.6141L15.236 10.2501ZM15.61 20.6051L15.672 20.7151L15.612 20.9461L14.909 21.0001C14.984 20.7701 15.096 20.6591 15.217 20.4841L15.61 20.6051ZM14.742 19.7101C14.422 19.6921 13.984 19.4581 13.89 19.1941L14.909 19.4531L14.742 19.7101ZM15.1 19.6961L14.909 19.7101L14.915 19.6481L15.127 19.4521L15.1 19.6961ZM14.4 10.2591L14.71 10.1611L14.909 10.4111L14.699 10.4191L14.4 10.2591ZM14.396 21.3391C14.3793 21.3951 14.3633 21.4517 14.348 21.5091L14.274 21.5161L14.145 21.2581L14.4 21.2841L14.396 21.3391ZM14.537 20.2261L15.131 20.3461L15.163 20.4261L14.702 21.0001L14.145 20.9181L14.537 20.2261ZM18.981 12.1381L19.096 11.9691L19.138 11.9681L19.458 12.0481L19.49 12.0941L19.133 12.2261L18.981 12.1381ZM19.67 11.3041L19.49 11.1941C19.673 11.2611 19.568 11.1851 19.67 11.3041ZM19.612 12.4841L19.49 12.3801L19.745 12.2261L19.612 12.4841ZM19.49 14.2901L19.886 14.3881C19.993 14.4301 19.99 14.4411 19.999 14.5481C19.829 14.4831 19.545 14.4381 19.49 14.2901ZM19.53 13.5871L19.584 13.5171L19.745 13.7741L19.49 13.7241L19.53 13.5871ZM14.373 22.0781L14.4 22.1461L14.057 22.2771L13.89 22.2901L13.894 22.2551L14.011 22.0721C14.173 21.9971 14.177 22.0461 14.373 22.0781ZM13.636 9.12806C13.858 9.29406 13.916 9.49806 13.881 10.1611C13.735 9.97406 13.646 9.57706 13.636 9.12906V9.12806ZM13.782 8.61306L13.764 8.80006L13.637 8.80906L13.783 8.61306H13.782ZM13.636 8.87106L13.616 9.05706L13.381 9.01406L13.575 8.87506L13.636 8.87106ZM13.636 23.8391L13.762 22.5251L14.654 22.2901L13.716 23.7911L13.636 23.8391ZM13.699 20.3071L13.836 20.2261C13.961 20.3741 13.849 20.5871 13.731 20.7421C13.633 20.6501 13.622 20.5921 13.648 20.3831L13.699 20.3071ZM12.872 20.1811L13.165 19.7101L13.635 19.9861C13.4743 20.2381 13.3127 20.4901 13.15 20.7421C13.004 20.6121 12.914 20.4211 12.872 20.1821V20.1811ZM12.872 22.2021L13.342 21.7741L13.563 21.7941L13.636 21.9141C13.616 22.0401 13.5973 22.1654 13.58 22.2901L12.872 22.2021ZM12.109 21.8521L12.669 21.5161L13.095 21.5831L13.127 21.6421L12.678 22.0321C12.454 22.0091 12.305 21.9491 12.188 21.8471L12.109 21.8521ZM12.034 21.3531L12.239 21.2581L12.327 21.2771L12.363 21.3191L11.77 21.5161L11.6 21.4561L12.034 21.3531ZM11.345 21.1111L11.495 20.7481C11.773 20.7121 11.839 20.8491 12.048 20.9361L12.108 21.0281L11.797 21.2411L11.544 21.2581L11.345 21.1111ZM10.835 22.1701L11.206 21.5161C11.452 21.5161 11.482 21.5361 11.583 21.6661C11.628 21.7421 11.589 21.7011 11.491 21.7181L11.468 21.9431L11.854 22.0031C11.778 22.1921 11.766 22.1671 11.652 22.2871C11.272 22.3071 11.1 22.2351 10.835 22.1701ZM10.407 21.2581L11.054 21.4531L11.09 21.5301L10.675 22.0321L10.072 21.8341L10.407 21.2581ZM7.914 20.5601L7.922 20.4831L8.283 20.7611L8.314 20.8351C7.563 21.4151 8.712 23.3051 10.019 22.0801L10.581 22.3061C10.365 22.6911 9.994 22.8431 9.603 23.0611C8.668 23.1391 7.36 21.6121 7.914 20.5601ZM8.786 20.8241L8.8 20.9991L8.592 20.8421L8.545 20.7411L8.786 20.8241ZM10.072 21.9201L9.607 22.2801C8.691 22.3761 8.32 21.7421 8.29 20.9631L8.469 20.7471L8.547 20.7411C9.008 21.1041 9.416 21.6581 10.042 21.8411L10.072 21.9201ZM9.185 18.1601C9.102 18.1001 9.097 18.0701 9.055 17.9681L9.229 17.3061L9.432 17.1281L9.563 17.3201L9.185 18.1601ZM9.055 18.3831L9.456 17.4341L9.538 17.3861C9.723 17.7121 9.991 17.8601 10.072 18.3031L9.468 18.9341C9.27925 18.7951 9.13532 18.6039 9.054 18.3841L9.055 18.3831ZM9.818 19.1731L10.328 18.6761L10.581 19.1931L9.818 19.1731ZM11.09 13.9581C10.849 14.4731 10.528 14.8231 10.336 15.3221C10.252 14.8691 10.758 14.2181 10.921 13.8181L10.999 13.7731L11.09 13.9581ZM11.09 12.5381C11.469 12.4211 11.723 12.2071 11.994 11.9671L12.109 12.3111L11.787 12.7411L11.09 12.5381ZM12.363 12.5651L12.225 12.7411L12.109 12.7211L12.111 12.6931L12.343 12.4831L12.363 12.5651ZM12.163 11.4531L12.203 11.4511L12.363 11.7881L12.303 11.9671C12.07 11.8451 12.079 11.7001 12.163 11.4531ZM12.115 18.9341L12.35 19.1031L12.109 18.9971L12.115 18.9341ZM12.111 19.1931L12.363 19.3021L12.359 19.3321L11.819 19.7091C11.664 19.6391 11.645 19.5001 11.599 19.3491L11.604 19.3171L12.111 19.1931ZM11.358 18.6761L11.6 18.7741L11.47 18.8491L11.345 18.8631L11.358 18.6761ZM11.345 13.5161C11.651 13.6021 11.554 13.5441 11.567 13.7731C11.427 13.6911 11.417 13.6531 11.345 13.5161ZM11.345 18.1251L11.366 17.9021C11.485 17.9851 11.526 18.0341 11.6 18.1601L11.345 18.1251ZM11.855 14.9021C11.759 15.0251 11.763 14.9921 11.6 15.0631L11.711 14.8051L11.855 14.9021ZM11.855 13.8641L11.695 14.0311C11.535 13.9411 11.61 13.9771 11.682 13.8101L11.777 13.7731L11.855 13.8641ZM11.834 13.4251L11.6 13.2571C11.78 13.3261 11.738 13.2841 11.834 13.4251ZM11.345 18.1601L11.6 18.3631C11.47 18.3601 11.4 18.3321 11.345 18.1601ZM12.109 18.1501L12.005 18.1601L11.916 17.9961L11.854 17.9161L11.992 17.9021L12.109 18.1501ZM11.969 13.3721L11.854 13.2581C11.966 13.3361 11.892 13.2601 11.968 13.3731L11.969 13.3721ZM11.984 17.6221L11.854 17.3521L11.909 17.1301L11.941 17.1281L12.109 17.6441L11.984 17.6221ZM11.317 20.6251L11.345 20.6591L11.254 21.0001C11.1471 20.9554 11.0529 20.8848 10.9799 20.7948C10.907 20.7047 10.8575 20.598 10.836 20.4841L11.317 20.6251ZM10.581 21.0001L10.836 21.2261C10.673 21.1541 10.663 21.1571 10.581 21.0001ZM11.021 18.7121L11.051 18.9351L10.836 18.6771L11.021 18.7121ZM10.769 19.9191L10.581 19.4521C10.804 19.5371 10.978 19.7921 11.091 19.9681L10.769 19.9191ZM10.969 15.3251L11.032 15.3231L10.846 15.5811C10.816 15.5171 10.853 15.4561 10.956 15.3811L10.969 15.3251ZM10.836 17.5431L10.785 17.6451L10.639 17.5321L10.581 17.4091L10.781 17.3871L10.836 17.5431ZM9.054 19.7101C9.564 20.0421 10.431 20.3501 10.581 21.0001C9.9756 20.6992 9.45176 20.2567 9.054 19.7101ZM10.377 19.4601L10.581 19.7101L10.072 19.4521L10.377 19.4601ZM12.241 20.2261L11.854 19.8361L12.531 19.1941L12.618 19.9011L12.241 20.2261ZM12.618 20.6571L12.685 20.4891L12.775 20.4841L12.872 20.7421L12.618 20.6571ZM12.961 19.7101L12.872 19.4521L13.057 19.4861L12.961 19.7101ZM12.618 11.0201L12.62 10.9971L12.872 10.9351L12.696 11.1931L12.618 11.0201ZM10.051 16.3551L9.818 15.8391C10.117 15.9041 10.068 16.1171 10.051 16.3551ZM9.428 16.6131C9.21 16.4621 9.071 16.1611 9.054 15.8391C9.501 15.9441 9.476 16.1201 9.564 16.5281L9.428 16.6131ZM9.165 15.2661C8.84 14.9591 9.313 13.7311 9.521 13.4481C9.631 13.3091 9.769 13.3121 9.951 13.2581L10.072 13.2891C9.766 13.8311 9.56 14.5691 9.487 15.3231L9.165 15.2661ZM8.69 19.4521L8.845 19.7131L8.706 20.0381L8.626 20.1231C8.74 20.1391 8.766 20.0411 8.936 19.9021C9.266 20.4371 9.77 20.9491 10.326 21.2401L10.023 21.7741L9.103 21.1821C8.998 20.9871 9.143 20.7631 8.974 20.6441C8.821 20.5361 8.624 20.6921 8.468 20.6451L8.036 20.2491C8.163 19.9651 8.285 19.6871 8.536 19.5421L8.69 19.4521ZM7.81 16.6061C7.84546 16.3488 7.8952 16.0938 7.959 15.8421L7.993 15.8391L8.126 16.6061L8.196 17.0061C8.396 17.5641 8.59733 18.1211 8.8 18.6771C8.316 18.4131 8.017 17.8021 8.06 16.9801C7.944 17.2451 8.04 17.6621 8.078 17.8961C7.781 17.6441 7.744 17.1431 7.81 16.6061ZM7.368 16.8711C7.32279 16.773 7.29375 16.6684 7.282 16.5611C7.26751 16.4163 7.26885 16.2705 7.286 16.1261L7.33 16.0341L7.527 15.8391L7.416 16.5601L7.368 16.8701V16.8711ZM25.09 19.4511L24.581 19.2551L25.075 19.1941L25.09 19.4511ZM11.62 23.6511L11.753 23.5811L11.599 23.8381L11.619 23.6521L11.62 23.6511ZM7.781 14.8071L7.564 14.7871C7.294 14.6981 7.041 14.3831 7.018 14.0331C7.431 14.0701 7.571 14.2661 7.775 14.5051C7.77767 14.6051 7.77967 14.7057 7.781 14.8071ZM7.751 14.7861C7.781 14.2291 7.356 13.8811 6.804 13.8961C6.898 13.1141 7.578 12.7141 8.184 12.4511L8.301 12.4421C8.2 13.4241 8.277 14.2701 7.91 15.1201C7.639 15.7461 6.678 15.7341 6.73 16.7001L6.737 16.7801C6.874 18.0641 8.27 18.3251 8.463 19.4541C6.393 20.5071 8.916 24.9321 10.553 22.3331C10.847 22.3751 11.108 22.5081 11.473 22.3801C11.643 22.2861 11.676 22.2101 11.742 22.0141L12.327 22.3171L12.357 22.3911C11.821 22.8071 11.443 23.3781 10.867 23.7681L10.922 23.6101L10.772 23.5831L10.689 23.6281L10.614 23.9781C10.943 24.3141 11.94 23.0991 12.232 22.8611C12.067 23.4381 11.659 23.7351 11.432 24.2631L11.502 24.3351C11.932 24.0271 12.459 23.1551 12.539 22.4921L13.183 22.5991C12.376 23.6901 10.303 26.0901 9.213 26.7311C9.379 26.2101 9.643 25.8121 9.777 25.3841L9.699 25.3901L9.629 25.3181C9.364 25.8401 8.927 26.2071 8.849 26.9111C8.89581 26.9807 8.95474 27.0413 9.023 27.0901C10.319 26.8741 12.483 23.6171 13.517 22.7271C13.237 25.5371 11.731 25.9751 10.425 27.6771C11.612 27.0851 12.332 25.5751 13.347 24.7371C13.235 25.9101 12.956 28.5331 12.254 29.0001L12.37 28.9911C13.158 28.5011 13.204 26.4861 13.467 25.4561L13.579 24.3731L14.704 22.7931L14.786 22.7481C14.912 23.1431 15.482 23.5721 16.099 23.4571L16.542 23.2711L17.654 23.6871C17.8 25.2871 17.744 26.1841 16.731 27.4021C17.766 26.8731 18.146 24.8351 17.801 23.7531C20.208 24.0321 20.111 23.2201 19.655 21.4671L20.078 21.4741C20 21.3571 19.789 21.4441 19.628 21.3541C19.555 21.3071 19.569 21.3161 19.524 21.2461C20.096 20.6011 21.474 21.2421 21.184 22.3131C21.58 21.4251 20.705 20.6351 19.862 20.9531C20.222 20.5261 20.658 20.1751 20.886 19.6101L20.968 19.5661L22.948 21.6461L23.065 21.6371L23.155 21.5151C22.525 20.7684 21.896 20.0217 21.268 19.2751L21.47 19.1831C21.5147 19.137 21.5695 19.102 21.6301 19.081C21.6907 19.06 21.7554 19.0535 21.819 19.0621L21.719 19.0121C22.73 19.1131 24.022 19.9561 25.077 19.6841C25.174 19.5151 25.179 19.4241 25.12 19.2591C26.244 19.2871 28.266 18.9111 28.91 18.3651C27.18 18.7281 25.232 18.8511 23.644 18.6391L22.237 18.4741L22.158 18.4801L22.537 17.8001C23.697 17.7781 26.739 17.7491 27.354 17.0211L27.218 16.8391L26.688 16.7631C26.6511 16.8224 26.6305 16.8903 26.628 16.9601L27.048 17.0051C26.136 17.2351 23.596 17.7201 22.767 17.4371C22.68 17.3311 22.744 16.9631 22.748 16.6981C22.7494 16.6506 22.7474 16.6032 22.742 16.5561C23.934 16.2001 24.819 15.3981 25.182 14.1881C25.389 13.4951 25.252 12.5851 25.7 12.1531C25.986 12.1781 26.044 12.2991 26.254 12.3811C26.143 12.2271 25.984 12.1411 25.785 12.0711L25.412 12.3281C25.071 12.4601 24.714 12.1151 24.135 12.3841C23.665 11.9821 23.4 11.3471 22.765 11.1041L22.7 10.9941L23.47 10.2451C23.218 10.4561 22.961 10.7051 22.704 10.9551L22.188 10.7241L22.158 10.6491C22.746 10.2331 23.268 10.0791 23.937 10.2111C23.9683 10.2731 24.0003 10.3347 24.033 10.3961C24.002 10.4491 23.974 10.4641 23.947 10.4791L23.722 10.4191C23.819 10.4761 23.92 10.4941 24.021 10.5121L24.106 10.4291L24.119 10.3131C23.973 10.1831 23.928 10.0891 23.641 10.0791L23.778 9.87706C23.45 10.1031 22.784 10.1631 22.458 10.3591L23.212 9.76506L23.302 9.64406L21.907 10.4761C21.609 10.4561 21.292 10.3161 21.131 10.1491L21.054 10.1551L22.71 9.03506L22.683 8.92206L20.799 10.0211L20.197 9.87306L20.253 9.33206L24.57 5.94206L24.647 5.93606L24.586 5.78706C24.426 5.71106 23.769 6.24406 23.521 6.40306C22.565 7.01606 21.72 7.77906 20.78 8.33306C21.168 7.84006 21.878 7.34906 21.996 6.63106L21.806 6.60706L21.51 6.85906L21.832 6.71906C21.624 7.35206 20.682 8.48206 20.15 8.84006L20.088 8.69106C20.434 8.10906 20.775 7.32606 20.615 6.57906L20.325 6.40906L20.014 6.43206C20.213 6.51106 20.348 6.53006 20.494 6.62706C20.587 7.35106 20.231 7.84106 20.039 8.42706L19.957 8.47106C19.829 8.23406 19.837 8.12006 19.574 8.07706L19.551 7.92506L19.731 7.68106L19.855 7.59506C19.897 7.67506 19.899 7.64606 19.912 7.78306C19.9483 7.72395 19.9687 7.65641 19.971 7.58706L19.824 7.52106L19.435 7.93306C19.11 7.71606 18.752 7.48806 18.295 7.40306C18.554 6.86606 19.341 6.00306 18.935 5.32206C18.439 4.49406 16.746 5.44806 16.126 6.10506C16.0538 6.1781 15.9913 6.2601 15.94 6.34906L16.126 6.20506C16.738 5.74906 18.367 4.65706 18.72 5.53006C19.09 6.01706 18.381 6.95406 18.188 7.33506C17.528 7.26806 16.838 7.20506 16.128 7.21906C15.3807 7.22524 14.6386 7.34459 13.927 7.57306C13.567 7.69206 12.031 8.61206 11.972 8.60006L11.272 7.92206L9.808 7.18706L9.8 7.26406L9.714 7.34706L11.59 8.93506L11.304 9.11006C10.532 8.52506 10 8.17006 8.851 7.87106L8.657 7.88606C9.328 8.34806 10.004 8.77106 10.679 9.19506L10.814 9.37706C10.332 9.58006 10.128 10.0021 9.721 10.2641C9.085 9.96006 8.496 9.68406 7.725 9.45106L7.671 9.60906L9.115 10.5391L9.193 10.5331L8.944 10.7051C8.829 11.0921 8.604 11.5411 8.416 12.0871C7.696 12.6731 6.763 12.6381 6.618 13.8321C6.388 13.8951 6.226 13.9151 6.016 14.0691L6 14.2241C6.132 14.4081 7.301 14.9031 7.58 14.9511L7.752 14.7851L7.751 14.7861ZM16.291 6.53006L16.398 6.55006L16.255 6.53206C16.2297 6.53206 16.205 6.53306 16.181 6.53506C16.294 6.32506 16.626 6.27306 16.945 6.29606L16.923 6.44806L16.299 6.47906L16.291 6.53006ZM16.737 6.80706L17.037 6.70906C17.167 6.49306 17.241 6.26406 17.175 6.05506C16.866 5.99406 16.688 6.06906 16.399 6.19106L16.242 6.44806L16.182 6.54806L16.242 6.60806C16.34 6.68806 16.458 6.71606 16.675 6.69806C16.735 6.80006 16.665 6.75506 16.558 6.78306L16.737 6.80706ZM24.14 9.13006L23.818 9.19006L24.016 9.17606L24.243 9.27406L23.899 9.90406C24.076 9.69506 24.252 9.54706 24.327 9.23006L24.14 9.13006ZM22.29 19.1951C22.21 19.0521 22.123 18.9581 22.036 18.9361C22.113 19.0091 22.202 19.0951 22.29 19.1951ZM21.272 22.2911L21.018 22.4391L21.213 22.4211L21.272 22.2911ZM22.29 19.1951C22.549 19.4871 22.743 20.0471 22.687 20.4851C22.981 19.8501 22.646 19.4541 22.29 19.1951Z" fill="white"/>
</svg>
