<svg width="32" height="32" viewBox="0 0 32 32" fill="none" xmlns="http://www.w3.org/2000/svg">
<path d="M2 9C2 5.13401 5.13401 2 9 2H23C26.866 2 30 5.13401 30 9V23C30 26.866 26.866 30 23 30H9C5.13401 30 2 26.866 2 23V9Z" fill="#E44F26"/>
<path d="M16 14.407H11.91L11.628 11.242H16V8.151H8.25L8.324 8.981L9.083 17.498H16V14.407ZM16 22.434L15.986 22.438L12.544 21.509L12.324 19.044H9.221L9.654 23.896L15.986 25.654L16 25.65V22.434Z" fill="#EBEBEB"/>
<path d="M15.989 14.407V17.498H19.795L19.437 21.507L15.989 22.437V25.653L22.326 23.896L22.372 23.374L23.098 15.237L23.174 14.407H15.989ZM15.989 8.151V11.242H23.455L23.517 10.548L23.658 8.981L23.732 8.151H15.989Z" fill="white"/>
</svg>
