<svg width="32" height="32" viewBox="0 0 32 32" fill="none" xmlns="http://www.w3.org/2000/svg">
<path d="M2 9C2 5.13401 5.13401 2 9 2H23C26.866 2 30 5.13401 30 9V23C30 26.866 26.866 30 23 30H9C5.13401 30 2 26.866 2 23V9Z" fill="#F5DE19"/>
<path d="M20.809 23.875C21.048 24.3593 21.4187 24.7664 21.8786 25.0494C22.3385 25.3324 22.869 25.4799 23.409 25.475C24.499 25.475 25.196 24.93 25.196 24.175C25.196 23.275 24.48 22.953 23.28 22.428L22.622 22.146C20.722 21.337 19.462 20.324 19.462 18.182C19.462 16.209 20.962 14.706 23.315 14.706C24.0767 14.6511 24.8377 14.8217 25.5031 15.1963C26.1685 15.571 26.709 16.1333 27.057 16.813L25 18.128C24.8659 17.791 24.6326 17.5027 24.331 17.3013C24.0294 17.0998 23.6737 16.9948 23.311 17C23.1528 16.9842 22.993 17.0015 22.8418 17.0508C22.6906 17.1001 22.5513 17.1804 22.4329 17.2865C22.3145 17.3926 22.2194 17.5223 22.1538 17.6671C22.0883 17.812 22.0536 17.969 22.052 18.128C22.052 18.917 22.541 19.237 23.67 19.728L24.328 20.01C26.564 20.969 27.828 21.946 27.828 24.143C27.828 26.512 25.967 27.81 23.468 27.81C22.4944 27.8714 21.5238 27.6501 20.6731 27.1726C19.8224 26.6952 19.1278 25.982 18.673 25.119L20.809 23.875ZM11.514 24.103C11.927 24.836 12.303 25.456 13.207 25.456C14.071 25.456 14.617 25.118 14.617 23.803V14.856H17.248V23.838C17.248 26.562 15.648 27.802 13.319 27.802C12.4958 27.847 11.6782 27.6418 10.9737 27.2135C10.2692 26.7851 9.71086 26.1536 9.37201 25.402L11.514 24.103Z" fill="black"/>
</svg>
