<svg width="32" height="32" viewBox="0 0 32 32" fill="none" xmlns="http://www.w3.org/2000/svg">
<path d="M2 9C2 5.13401 5.13401 2 9 2H23C26.866 2 30 5.13401 30 9V23C30 26.866 26.866 30 23 30H9C5.13401 30 2 26.866 2 23V9Z" fill="#0A66C2"/>
<path d="M22.2032 25.8093H25.4046C25.5206 25.8093 25.6319 25.7632 25.7139 25.6812C25.796 25.5992 25.8421 25.4879 25.8421 25.3719L25.8438 18.6079C25.8438 15.0726 25.082 12.3552 20.9505 12.3552C19.38 12.2968 17.899 13.1064 17.0998 14.4582C17.0959 14.4648 17.0899 14.4699 17.0828 14.4728C17.0757 14.4757 17.0679 14.4761 17.0605 14.4741C17.0532 14.4721 17.0466 14.4678 17.042 14.4617C17.0373 14.4557 17.0348 14.4483 17.0347 14.4406V13.1191C17.0347 13.003 16.9886 12.8918 16.9065 12.8097C16.8245 12.7277 16.7132 12.6816 16.5972 12.6816H13.5591C13.443 12.6816 13.3318 12.7277 13.2497 12.8097C13.1677 12.8918 13.1216 13.003 13.1216 13.1191V25.3712C13.1216 25.4873 13.1677 25.5986 13.2497 25.6806C13.3318 25.7627 13.443 25.8087 13.5591 25.8087H16.7603C16.8763 25.8087 16.9876 25.7627 17.0696 25.6806C17.1517 25.5986 17.1978 25.4873 17.1978 25.3712V19.3148C17.1978 17.6023 17.5226 15.9439 19.6457 15.9439C21.7386 15.9439 21.7657 17.9035 21.7657 19.4257V25.3718C21.7657 25.4878 21.8118 25.5991 21.8938 25.6812C21.9759 25.7632 22.0872 25.8093 22.2032 25.8093ZM6.15625 8.52181C6.15625 9.81944 7.22452 10.8872 8.52225 10.8872C9.81966 10.887 10.8873 9.81867 10.8873 8.52127C10.887 7.22386 9.81933 6.15625 8.52181 6.15625C7.22397 6.15625 6.15625 7.22419 6.15625 8.52181ZM6.91739 25.8093H10.1228C10.2389 25.8093 10.3502 25.7632 10.4322 25.6812C10.5143 25.5991 10.5603 25.4878 10.5603 25.3718V13.1191C10.5603 13.003 10.5143 12.8918 10.4322 12.8097C10.3502 12.7277 10.2389 12.6816 10.1228 12.6816H6.91739C6.80136 12.6816 6.69008 12.7277 6.60803 12.8097C6.52598 12.8918 6.47989 13.003 6.47989 13.1191V25.3718C6.47989 25.4878 6.52598 25.5991 6.60803 25.6812C6.69008 25.7632 6.80136 25.8093 6.91739 25.8093Z" fill="white"/>
</svg>
