<svg width="32" height="32" viewBox="0 0 32 32" fill="none" xmlns="http://www.w3.org/2000/svg">
<path d="M23.4375 2H8.5625C4.93813 2 2 4.93813 2 8.5625V23.4375C2 27.0619 4.93813 30 8.5625 30H23.4375C27.0619 30 30 27.0619 30 23.4375V8.5625C30 4.93813 27.0619 2 23.4375 2Z" fill="#023430"/>
<path d="M20.722 13.7678C19.5696 8.68391 17.1677 7.3305 16.555 6.3738C16.3023 5.95234 16.0785 5.51424 15.885 5.0625C15.8527 5.51422 15.7932 5.79859 15.4093 6.14116C14.6385 6.82836 11.3649 9.49602 11.0894 15.2724C10.8327 20.6583 15.0488 23.9792 15.6057 24.3226C16.034 24.5333 16.5556 24.327 16.8101 24.1336C18.8424 22.7388 21.6192 19.0203 20.7242 13.7678" fill="#10AA50"/>
<path d="M16.0596 21.4546C15.9535 22.7877 15.8775 23.5623 15.608 24.3241C15.608 24.3241 15.7849 25.5932 15.9091 26.9375H16.3487C16.4535 25.9908 16.6136 25.0511 16.8282 24.1231C16.2591 23.8431 16.0815 22.6244 16.0596 21.4546Z" fill="#B8C4C2"/>
<path d="M16.8274 24.1238C16.2523 23.8582 16.086 22.6138 16.0604 21.4546C16.2026 19.5424 16.244 17.6241 16.1846 15.7075C16.1544 14.7019 16.1988 6.39338 15.9369 5.17691C16.1161 5.58891 16.3226 5.98851 16.555 6.37304C17.1677 7.3305 19.5703 8.68391 20.722 13.7678C21.6192 19.0113 18.8575 22.72 16.8274 24.1238Z" fill="#12924F"/>
</svg>
