<svg width="32" height="32" viewBox="0 0 32 32" fill="none" xmlns="http://www.w3.org/2000/svg">
<path d="M23.4375 2H8.5625C4.93813 2 2 4.93813 2 8.5625V23.4375C2 27.0619 4.93813 30 8.5625 30H23.4375C27.0619 30 30 27.0619 30 23.4375V8.5625C30 4.93813 27.0619 2 23.4375 2Z" fill="#001E36"/>
<path d="M16 28C15.6653 28.0002 15.3365 27.915 15.0466 27.7531L12.0129 26.0156C11.5601 25.7705 11.7808 25.6839 11.9305 25.6333C12.4121 25.4897 12.8732 25.2881 13.3029 25.0333C13.3389 25.017 13.3785 25.0099 13.4181 25.0127C13.4577 25.0156 13.4959 25.0283 13.5289 25.0496L15.86 26.3894C15.9034 26.4116 15.9518 26.4232 16.0009 26.4232C16.05 26.4232 16.0984 26.4116 16.1418 26.3894L25.2324 21.3132C25.2751 21.2887 25.3104 21.2539 25.3348 21.212C25.3593 21.1702 25.3719 21.1229 25.3715 21.0749V10.9209C25.3716 10.8721 25.3587 10.8241 25.334 10.7816C25.3093 10.7391 25.2737 10.7035 25.2306 10.6783L16.14 5.60639C16.0972 5.58279 16.0488 5.57037 15.9996 5.57037C15.9503 5.57037 15.9019 5.58279 15.8591 5.60639L6.77383 10.68C6.73049 10.7048 6.69451 10.74 6.66936 10.7822C6.64422 10.8244 6.63076 10.8721 6.63029 10.9209V21.0706C6.63087 21.1184 6.64433 21.1652 6.66935 21.2064C6.69437 21.2476 6.73008 21.2817 6.77294 21.3055L9.26622 22.6975C10.6174 23.3507 11.445 22.581 11.445 21.8078V11.7866C11.445 11.7184 11.473 11.653 11.5228 11.6048C11.5727 11.5565 11.6403 11.5294 11.7108 11.5294H12.8626C12.9331 11.5294 13.0007 11.5565 13.0505 11.6048C13.1004 11.653 13.1284 11.7184 13.1284 11.7866V21.8086C13.1284 23.553 12.1467 24.5516 10.4367 24.5516C9.699 24.5635 8.97299 24.3727 8.34298 24.0013L5.95337 22.6752C5.66352 22.5116 5.423 22.2773 5.25575 21.9958C5.0885 21.7143 5.00033 21.3953 5.00001 21.0706V10.9209C4.99897 10.5955 5.08654 10.2757 5.2539 9.99357C5.42127 9.71142 5.66252 9.47691 5.95337 9.31365L15.0449 4.23577C15.3378 4.08107 15.6662 4 16 4C16.3338 4 16.6622 4.08107 16.9551 4.23577L26.0457 9.31365C26.3355 9.47709 26.576 9.71103 26.7434 9.99222C26.9108 10.2734 26.9993 10.5921 27 10.9166V21.0706C26.9996 21.3954 26.9113 21.7144 26.7439 21.9959C26.5765 22.2775 26.3358 22.5117 26.0457 22.6752L16.9551 27.7531C16.6648 27.9153 16.3353 28.0005 16 28Z" fill="#83CD29"/>
<path d="M14.054 17.953C14.054 17.8734 14.0856 17.7971 14.1419 17.7409C14.1981 17.6846 14.2744 17.653 14.354 17.653H15.681C15.7519 17.6532 15.8204 17.6786 15.8744 17.7245C15.9284 17.7705 15.9644 17.8341 15.976 17.904C16.176 19.255 16.776 19.936 19.489 19.936C21.65 19.936 22.571 19.447 22.571 18.3C22.571 17.639 22.31 17.148 18.951 16.819C16.143 16.541 14.407 15.919 14.407 13.675C14.407 11.605 16.152 10.37 19.077 10.37C22.364 10.37 23.991 11.511 24.197 13.959C24.2001 13.9999 24.1949 14.041 24.1815 14.0797C24.1682 14.1185 24.147 14.1541 24.1194 14.1843C24.0918 14.2146 24.0582 14.2389 24.0208 14.2557C23.9834 14.2725 23.943 14.2814 23.902 14.282H22.566C22.499 14.2811 22.4342 14.2577 22.382 14.2157C22.3298 14.1736 22.2932 14.1153 22.278 14.05C21.959 12.629 21.178 12.175 19.078 12.175C16.718 12.175 16.444 12.997 16.444 13.613C16.444 14.359 16.768 14.577 19.954 14.998C23.107 15.415 24.605 16.005 24.605 18.221C24.605 20.457 22.741 21.737 19.49 21.737C14.995 21.743 14.054 19.682 14.054 17.953Z" fill="#83CD29"/>
</svg>
