<svg width="32" height="32" viewBox="0 0 32 32" fill="none" xmlns="http://www.w3.org/2000/svg">
<path d="M23.4375 2H8.5625C4.93813 2 2 4.93813 2 8.5625V23.4375C2 27.0619 4.93813 30 8.5625 30H23.4375C27.0619 30 30 27.0619 30 23.4375V8.5625C30 4.93813 27.0619 2 23.4375 2Z" fill="#FF6C37"/>
<path d="M20.491 11.6919L14.9632 17.2199L13.4043 15.661C18.8406 10.2249 19.3777 10.6965 20.491 11.6919Z" fill="#EEEEEE"/>
<path d="M14.9632 17.3508C14.9239 17.3508 14.8977 17.3378 14.8715 17.3115L13.2995 15.7527C13.2871 15.7409 13.2772 15.7267 13.2705 15.7109C13.2637 15.6952 13.2602 15.6782 13.2602 15.661C13.2602 15.6439 13.2637 15.6269 13.2705 15.6112C13.2772 15.5954 13.2871 15.5812 13.2995 15.5694C18.8275 10.0414 19.4038 10.5654 20.5697 11.6133C20.5959 11.6395 20.609 11.6658 20.609 11.7051C20.609 11.7444 20.5959 11.7706 20.5697 11.7966L15.0418 17.3115C15.0287 17.3378 14.9894 17.3508 14.9632 17.3508ZM13.5877 15.661L14.9632 17.0364L20.2946 11.7051C19.3253 10.8405 18.6703 10.5785 13.5877 15.661Z" fill="#FF6C37"/>
<path d="M16.5482 18.8049L15.0418 17.2985L20.5697 11.7707C22.05 13.2639 19.8361 15.6873 16.5482 18.8049Z" fill="#EEEEEE"/>
<path d="M16.5482 18.936C16.5088 18.936 16.4828 18.9228 16.4565 18.8966L14.9501 17.3902C14.9239 17.364 14.9239 17.3378 14.9239 17.2985C14.9239 17.2591 14.937 17.233 14.9632 17.2067L20.491 11.6789C20.5029 11.6665 20.5171 11.6566 20.5329 11.6499C20.5486 11.6431 20.5656 11.6396 20.5828 11.6396C20.5999 11.6396 20.6169 11.6431 20.6326 11.6499C20.6484 11.6566 20.6626 11.6665 20.6745 11.6789C20.8417 11.8337 20.9739 12.0225 21.062 12.2326C21.1501 12.4428 21.1922 12.6694 21.1854 12.8971C21.1592 14.3511 19.5086 16.1981 16.653 18.8966C16.6137 18.9228 16.5743 18.936 16.5482 18.936ZM15.2252 17.2985C16.0634 18.1499 16.4173 18.4906 16.5482 18.6215C18.7489 16.5257 20.884 14.3773 20.8972 12.8971C20.9103 12.5565 20.7794 12.216 20.5566 11.9539L15.2252 17.2985Z" fill="#FF6C37"/>
<path d="M13.4306 15.7003L14.544 16.8138C14.5701 16.84 14.5701 16.8661 14.544 16.8924C14.5309 16.9055 14.5309 16.9055 14.5179 16.9055L12.2122 17.4033C12.0944 17.4164 11.9897 17.3378 11.9634 17.2199C11.9503 17.1543 11.9765 17.0889 12.0159 17.0496L13.3519 15.7134C13.3782 15.6872 13.4174 15.6741 13.4306 15.7003Z" fill="#EEEEEE"/>
<path d="M12.173 17.5343C11.9765 17.5343 11.8324 17.377 11.8324 17.1805C11.8324 17.0889 11.8717 16.9972 11.9373 16.9317L13.2733 15.5955C13.3519 15.53 13.4568 15.53 13.5353 15.5955L14.6488 16.709C14.7273 16.7745 14.7273 16.8924 14.6488 16.9709C14.6225 16.9972 14.5964 17.0103 14.557 17.0234L12.2516 17.5212C12.2254 17.5212 12.1991 17.5343 12.173 17.5343ZM13.3913 15.8444L12.1076 17.1281C12.0813 17.1543 12.0682 17.1936 12.0944 17.2329C12.1076 17.2722 12.1467 17.2854 12.1861 17.2723L14.3475 16.8006L13.3913 15.8444Z" fill="#FF6C37"/>
<path d="M23.4122 8.62681C22.5739 7.8147 21.2246 7.84084 20.4124 8.69233C19.6003 9.5437 19.6265 10.8798 20.4779 11.692C20.814 12.0168 21.2482 12.2212 21.7126 12.2733C22.1771 12.3255 22.6458 12.2224 23.0455 11.9802L21.5521 10.4868L23.4122 8.62681Z" fill="#EEEEEE"/>
<path d="M21.9451 12.4125C20.7007 12.4125 19.6921 11.4038 19.6921 10.1594C19.6921 8.91491 20.7007 7.90625 21.9451 7.90625C22.5215 7.90625 23.0848 8.12894 23.5039 8.53505C23.5301 8.5613 23.5433 8.58755 23.5433 8.6267C23.5433 8.66608 23.5301 8.69233 23.5039 8.71847L21.7355 10.4868L23.124 11.8754C23.1765 11.9279 23.1765 12.0064 23.124 12.0588L23.0979 12.085C22.7573 12.2945 22.3512 12.4125 21.9451 12.4125ZM21.9451 8.18144C20.8448 8.18144 19.954 9.07208 19.9671 10.1725C19.9671 11.2728 20.8578 12.1636 21.9582 12.1505C22.2595 12.1505 22.5607 12.0849 22.8358 11.9409L21.4604 10.5786C21.4342 10.5524 21.4212 10.5261 21.4212 10.4868C21.4212 10.4475 21.4342 10.4213 21.4604 10.3952L23.2158 8.63983C22.8621 8.33861 22.4167 8.18144 21.9451 8.18144Z" fill="#FF6C37"/>
<path d="M23.4515 8.66608L23.4254 8.63983L21.5521 10.4868L23.0324 11.9671C23.1765 11.8754 23.3205 11.7707 23.4385 11.6528C23.6369 11.4584 23.7948 11.2265 23.903 10.9706C24.0112 10.7148 24.0676 10.44 24.0688 10.1622C24.07 9.88434 24.0161 9.60906 23.9101 9.35225C23.8041 9.09543 23.6483 8.86221 23.4515 8.66608Z" fill="#EEEEEE"/>
<path d="M23.0455 12.1112C23.0061 12.1112 22.98 12.098 22.9537 12.0718L21.4604 10.5785C21.4342 10.5522 21.4212 10.5261 21.4212 10.4868C21.4212 10.4475 21.4342 10.4212 21.4604 10.3951L23.3205 8.53516C23.373 8.48266 23.4515 8.48266 23.5039 8.53516L23.5433 8.56141C24.4209 9.43892 24.4209 10.8537 23.5564 11.7445C23.4254 11.8755 23.2812 11.9934 23.124 12.085C23.0848 12.0982 23.0586 12.1112 23.0455 12.1112ZM21.7355 10.487L23.0586 11.81C23.1634 11.7445 23.2682 11.6528 23.3467 11.5741C24.0934 10.8274 24.1327 9.60933 23.4122 8.82336L21.7355 10.487Z" fill="#FF6C37"/>
<path d="M20.7138 11.9276C20.5626 11.7767 20.3577 11.6919 20.144 11.6919C19.9303 11.6919 19.7254 11.7767 19.5742 11.9276L14.6357 16.8661L15.461 17.6914L20.6876 13.1067C21.0282 12.8184 21.0543 12.3075 20.7662 11.967C20.74 11.9539 20.7269 11.9408 20.7138 11.9276Z" fill="#EEEEEE"/>
<path d="M15.4479 17.8224C15.4086 17.8224 15.3824 17.8093 15.3561 17.7831L14.5309 16.9579C14.5185 16.9461 14.5086 16.9319 14.5018 16.9161C14.4951 16.9003 14.4916 16.8833 14.4916 16.8662C14.4916 16.849 14.4951 16.8321 14.5018 16.8163C14.5086 16.8005 14.5185 16.7863 14.5309 16.7745L19.4693 11.836C19.556 11.7488 19.6591 11.6796 19.7726 11.6324C19.8861 11.5852 20.0079 11.5609 20.1308 11.5609C20.2538 11.5609 20.3755 11.5852 20.4891 11.6324C20.6026 11.6796 20.7057 11.7488 20.7924 11.836C20.8796 11.9227 20.9488 12.0258 20.996 12.1393C21.0432 12.2528 21.0675 12.3746 21.0675 12.4975C21.0675 12.6205 21.0432 12.7422 20.996 12.8558C20.9488 12.9693 20.8796 13.0724 20.7924 13.1591L20.7531 13.1984L15.5264 17.7831C15.5134 17.8093 15.4871 17.8224 15.4479 17.8224ZM14.8191 16.8661L15.461 17.5081L20.5959 13.0018C20.884 12.766 20.9103 12.3338 20.6745 12.0457C20.4387 11.7575 20.0064 11.7313 19.7182 11.9669C19.7052 11.98 19.6921 11.9932 19.6658 12.0063L14.8191 16.8661Z" fill="#FF6C37"/>
<path d="M10.85 22.4859C10.7975 22.5121 10.7713 22.5645 10.7843 22.6169L11.0071 23.5601C11.0596 23.691 10.9809 23.8483 10.8368 23.8876C10.7321 23.9268 10.6143 23.8876 10.5488 23.809L9.10773 22.3812L13.8104 17.6785L15.4348 17.7046L16.5351 18.805C16.2731 19.0277 14.688 20.5603 10.85 22.4859Z" fill="#EEEEEE"/>
<path d="M10.7452 24.0184C10.6404 24.0184 10.5356 23.9791 10.4701 23.9006L9.04222 22.4727C9.01597 22.4466 9.00295 22.4203 9.00295 22.3811C9.00295 22.3418 9.01608 22.3155 9.04233 22.2893L13.7449 17.5867C13.7712 17.5605 13.8104 17.5473 13.8367 17.5473L15.461 17.5736C15.5003 17.5736 15.5264 17.5867 15.5525 17.6128L16.653 18.7132C16.6792 18.7394 16.6922 18.7787 16.6922 18.8179C16.6922 18.8573 16.6792 18.8835 16.6398 18.9097L16.5482 18.9883C15.1597 20.2065 13.2733 21.4248 10.9285 22.5906L11.1513 23.5206C11.1906 23.6909 11.1119 23.8743 10.9547 23.966C10.8761 24.0053 10.8107 24.0184 10.7452 24.0184ZM9.30417 22.3811L10.6535 23.7172C10.6927 23.7827 10.7713 23.8088 10.8368 23.7696C10.9024 23.7303 10.9286 23.6517 10.8893 23.5861L10.6667 22.643C10.6404 22.5251 10.6927 22.4203 10.7976 22.3679C13.1161 21.2021 14.9894 19.997 16.3648 18.8049L15.3955 17.8355L13.8891 17.8093L9.30417 22.3811Z" fill="#FF6C37"/>
<path d="M7.9943 23.5076L9.12086 22.381L10.7976 24.0578L8.12533 23.8744C8.00742 23.8613 7.92878 23.7565 7.94191 23.6385C7.94191 23.5861 7.95492 23.5337 7.9943 23.5076Z" fill="#EEEEEE"/>
<path d="M10.7976 24.1757L8.1122 23.9922C7.91565 23.9791 7.78462 23.8089 7.79775 23.6124C7.81087 23.5337 7.83712 23.4552 7.90264 23.4028L9.0292 22.2763C9.04102 22.2638 9.05524 22.254 9.071 22.2472C9.08675 22.2405 9.10372 22.237 9.12086 22.237C9.138 22.237 9.15496 22.2405 9.17072 22.2472C9.18648 22.254 9.20069 22.2638 9.21251 22.2763L10.8892 23.953C10.9286 23.9922 10.9417 24.0446 10.9155 24.0971C10.8892 24.1495 10.8499 24.1757 10.7976 24.1757ZM9.12086 22.5645L8.08606 23.5993C8.04669 23.6255 8.04669 23.691 8.08606 23.7172C8.09919 23.7303 8.11231 23.7434 8.13845 23.7434L10.457 23.9006L9.12086 22.5645ZM13.3519 18.281C13.2733 18.281 13.2209 18.2155 13.2209 18.15C13.2209 18.1107 13.234 18.0846 13.2603 18.0583L14.5309 16.7877C14.5427 16.7753 14.5569 16.7654 14.5727 16.7586C14.5885 16.7519 14.6054 16.7484 14.6226 16.7484C14.6397 16.7484 14.6567 16.7519 14.6725 16.7586C14.6882 16.7654 14.7025 16.7753 14.7143 16.7877L15.5395 17.613C15.5788 17.6522 15.5919 17.6915 15.5788 17.744C15.5657 17.7832 15.5264 17.8225 15.4741 17.8356L13.3782 18.281H13.3519ZM14.6225 17.0628L13.758 17.9274L15.1727 17.626L14.6225 17.0628Z" fill="#FF6C37"/>
<path d="M15.4348 17.7045L13.9938 18.019C13.8891 18.0452 13.7842 17.9797 13.758 17.8749C13.7449 17.8094 13.758 17.7439 13.8104 17.6915L14.6094 16.8924L15.4348 17.7045Z" fill="#EEEEEE"/>
<path d="M13.9676 18.15C13.9245 18.1504 13.8817 18.1423 13.8418 18.1259C13.8018 18.1096 13.7656 18.0855 13.7351 18.055C13.7046 18.0246 13.6805 17.9883 13.6642 17.9483C13.6479 17.9084 13.6397 17.8656 13.6401 17.8225C13.6401 17.7309 13.6794 17.6522 13.7318 17.5868L14.5309 16.7877C14.5427 16.7753 14.5569 16.7654 14.5727 16.7586C14.5885 16.7519 14.6054 16.7484 14.6226 16.7484C14.6397 16.7484 14.6567 16.7519 14.6725 16.7586C14.6883 16.7654 14.7025 16.7753 14.7143 16.7877L15.5395 17.613C15.5788 17.6522 15.5919 17.6915 15.5788 17.744C15.5657 17.7832 15.5264 17.8225 15.4741 17.8356L14.0331 18.15H13.9676ZM14.6225 17.0628L13.9152 17.7701C13.8891 17.7964 13.8891 17.8225 13.9021 17.8488C13.9152 17.8749 13.9415 17.888 13.9807 17.888L15.1858 17.626L14.6225 17.0628ZM23.4646 9.92345C23.4385 9.84492 23.3467 9.80565 23.2681 9.8319C23.1895 9.85794 23.1503 9.9497 23.1765 10.0283C23.1765 10.0415 23.1895 10.0546 23.1895 10.0676C23.2681 10.2249 23.242 10.4213 23.1372 10.5654C23.0848 10.631 23.0979 10.7227 23.1503 10.775C23.2158 10.8273 23.3075 10.8144 23.3598 10.7488C23.5564 10.4999 23.5957 10.1855 23.4646 9.92345Z" fill="#FF6C37"/>
</svg>
