<svg width="32" height="32" viewBox="0 0 32 32" fill="none" xmlns="http://www.w3.org/2000/svg">
<path d="M23.4375 2H8.5625C4.93813 2 2 4.93813 2 8.5625V23.4375C2 27.0619 4.93813 30 8.5625 30H23.4375C27.0619 30 30 27.0619 30 23.4375V8.5625C30 4.93813 27.0619 2 23.4375 2Z" fill="#001E36"/>
<path d="M11.7334 10C11.3834 10 11.0334 10 10.6718 10.0118C10.31 10.0234 9.97159 10.0234 9.65659 10.0352C9.34159 10.0468 9.05 10.0468 8.77 10.0584C8.50159 10.07 8.315 10.07 8.11659 10.07C8.035 10.07 8 10.1166 8 10.1984V22.2034C8 22.3084 8.04659 22.3552 8.14 22.3552H10.4034C10.485 22.3434 10.5434 22.2734 10.5316 22.1918V18.4468C10.7532 18.4468 10.9166 18.4468 11.0334 18.4584C11.15 18.47 11.3366 18.47 11.6166 18.47C12.5734 18.47 13.4484 18.365 14.2416 18.0734C15 17.7934 15.6534 17.3034 16.12 16.65C16.5867 15.9967 16.82 15.1683 16.82 14.165C16.82 13.64 16.7268 13.1384 16.5518 12.6484C16.3664 12.1492 16.0759 11.6956 15.7 11.3184C15.2563 10.8874 14.7223 10.5605 14.1366 10.3616C13.4832 10.1166 12.69 10 11.7334 10ZM11.9937 12.298C12.4093 12.3058 12.814 12.3785 13.1916 12.5316C13.53 12.66 13.81 12.8934 14.0084 13.1966C14.1945 13.5104 14.2876 13.8706 14.2768 14.2352C14.2768 14.7484 14.16 15.1452 13.915 15.4368C13.6582 15.7284 13.3316 15.9502 12.9584 16.0552C12.5266 16.1952 12.0716 16.265 11.6166 16.265H10.9982C10.8582 16.265 10.7068 16.2534 10.5434 16.2418V12.3218C10.625 12.31 10.7884 12.2984 11.0218 12.3102C11.2434 12.2984 11.5116 12.2984 11.815 12.2984C11.8748 12.2969 11.9344 12.2968 11.9937 12.298ZM21.7784 12.8936C20.95 12.8936 20.2616 13.0218 19.7134 13.3018C19.2118 13.5352 18.78 13.9084 18.4884 14.375C18.2318 14.8068 18.0916 15.285 18.0916 15.7868C18.0816 16.1995 18.1738 16.6083 18.36 16.9768C18.5782 17.3692 18.8812 17.7079 19.2468 17.9684C19.76 18.3194 20.317 18.6018 20.9034 18.8084C21.475 19.03 21.86 19.205 22.0468 19.3566C22.2334 19.5084 22.3268 19.66 22.3268 19.8234C22.3268 20.0334 22.1984 20.2318 22.0118 20.3134C21.8018 20.4184 21.4868 20.4768 21.0434 20.4768C20.5768 20.4768 20.11 20.4184 19.6666 20.3018C19.1575 20.1881 18.6693 19.9952 18.22 19.7302C18.185 19.7068 18.15 19.6952 18.115 19.7186C18.08 19.7418 18.0684 19.7884 18.0684 19.8234V21.8534C18.0568 21.9468 18.115 22.0284 18.1968 22.075C18.5751 22.2517 18.9753 22.3773 19.3868 22.4484C19.9118 22.5534 20.4366 22.6 20.9732 22.6C21.8132 22.6 22.5134 22.4718 23.085 22.2268C23.61 22.0168 24.065 21.6552 24.3916 21.1884C24.6975 20.7295 24.8562 20.1882 24.8466 19.6368C24.8581 19.2203 24.7659 18.8074 24.5784 18.4352C24.3566 18.0384 24.0416 17.7118 23.6566 17.4668C23.0934 17.1131 22.4903 16.8272 21.86 16.615C21.5785 16.4985 21.3021 16.37 21.0316 16.23C20.88 16.1484 20.74 16.0434 20.635 15.915C20.565 15.8216 20.5184 15.7168 20.5184 15.6118C20.5184 15.5068 20.5534 15.3902 20.6116 15.2968C20.6934 15.1802 20.8216 15.0984 20.9732 15.0634C21.195 15.0052 21.44 14.97 21.6732 14.9816C22.1166 14.9816 22.5482 15.04 22.98 15.1334C23.3768 15.215 23.75 15.3434 24.1 15.5302C24.1466 15.5534 24.205 15.5534 24.31 15.5302C24.3282 15.5167 24.343 15.4991 24.3532 15.4788C24.3633 15.4585 24.3685 15.4361 24.3684 15.4134V13.5118C24.3684 13.465 24.3566 13.4184 24.345 13.3718C24.3216 13.3252 24.275 13.2784 24.2284 13.2668C23.9066 13.1353 23.5695 13.0451 23.225 12.9984C22.746 12.9287 22.2625 12.8938 21.7784 12.8936Z" fill="#31A8FF"/>
</svg>
