<svg width="32" height="32" viewBox="0 0 32 32" fill="none" xmlns="http://www.w3.org/2000/svg">
<path d="M23.4375 2H8.5625C4.93813 2 2 4.93813 2 8.5625V23.4375C2 27.0619 4.93813 30 8.5625 30H23.4375C27.0619 30 30 27.0619 30 23.4375V8.5625C30 4.93813 27.0619 2 23.4375 2Z" fill="#001E36"/>
<g clip-path="url(#clip0_1_34)">
<path d="M24.3772 12.1233C24.1005 12.0332 23.8214 11.9496 23.5403 11.8728C23.5875 11.6894 23.631 11.5083 23.6696 11.3304C24.3031 8.40854 23.889 6.05463 22.4743 5.27961C21.1179 4.53663 18.8997 5.31136 16.6594 7.1637C16.4387 7.34659 16.2228 7.53474 16.012 7.72798C15.8709 7.59948 15.7273 7.47347 15.5813 7.35003C13.2333 5.36945 10.8799 4.5347 9.46679 5.31194C8.11164 6.05724 7.71037 8.27007 8.28074 11.0392C8.33749 11.3134 8.40156 11.5863 8.4729 11.8574C8.13977 11.9474 7.81833 12.0431 7.5107 12.145C4.75795 13.0568 3 14.4857 3 15.9679C3 17.4988 4.88723 19.0342 7.75434 19.9653C7.98679 20.0405 8.22116 20.1101 8.45726 20.1742C8.38058 20.4662 8.31251 20.7603 8.25312 21.0559C7.70935 23.777 8.13398 25.9375 9.48548 26.6781C10.8814 27.4429 13.2242 26.6569 15.5054 24.7623C15.6904 24.6082 15.8713 24.4498 16.0479 24.2872C16.2762 24.4965 16.5106 24.6996 16.7507 24.8965C18.9605 26.703 21.1429 27.4325 22.4931 26.6899C23.8876 25.9228 24.3409 23.6018 23.7525 20.778C23.7061 20.5568 23.6541 20.3367 23.5966 20.1178C23.7611 20.0715 23.9226 20.0239 24.08 19.9743C27.0607 19.0361 29 17.5192 29 15.9679C29 14.4803 27.1853 13.0418 24.3772 12.1233ZM23.7307 18.9727C23.5885 19.0174 23.4427 19.0605 23.294 19.1025C22.965 18.1128 22.5209 17.0604 21.9775 15.9731C22.496 14.9117 22.923 13.8727 23.2428 12.8895C23.5088 12.9626 23.7669 13.0397 24.0157 13.1211C26.4217 13.9081 27.8893 15.0714 27.8893 15.9679C27.8893 16.9228 26.3043 18.1624 23.7307 18.9727ZM22.6629 20.983C22.9231 22.2316 22.9602 23.3605 22.7878 24.2431C22.633 25.0362 22.3217 25.5649 21.9365 25.7767C21.1172 26.2273 19.365 25.6416 17.4752 24.0966C17.2518 23.9136 17.0338 23.7247 16.8214 23.5302C17.5541 22.7689 18.2863 21.884 19.0009 20.9012C20.2578 20.7952 21.4453 20.6219 22.5221 20.3854C22.574 20.5835 22.621 20.7828 22.6629 20.983ZM11.864 25.6988C11.0635 25.9673 10.4258 25.9751 10.0404 25.7639C9.2203 25.3146 8.87935 23.5798 9.34441 21.2528C9.39969 20.9778 9.46299 20.7043 9.53423 20.4327C10.5992 20.6566 11.778 20.8175 13.0379 20.9146C13.7574 21.8763 14.5107 22.7603 15.2699 23.5343C15.1085 23.6826 14.9434 23.8271 14.7745 23.9677C13.7657 24.8055 12.7549 25.3999 11.864 25.6988ZM8.11367 18.9668C6.84587 18.5551 5.79886 18.02 5.08122 17.4362C4.4363 16.9115 4.11079 16.3906 4.11079 15.9679C4.11079 15.0685 5.5222 13.9212 7.87632 13.1414C8.16202 13.0469 8.46102 12.9576 8.77129 12.8739C9.0967 13.8793 9.52346 14.9306 10.0385 15.9936C9.51676 17.0724 9.0839 18.1404 8.75534 19.1578C8.53984 19.0991 8.32588 19.0354 8.11367 18.9668ZM9.37081 10.8364C8.8822 8.46402 9.20669 6.6744 10.0234 6.22523C10.8931 5.74683 12.8165 6.42892 14.8438 8.13913C14.976 8.25091 15.1061 8.36494 15.2339 8.48119C14.4785 9.25187 13.7321 10.1293 13.019 11.0853C11.7962 11.193 10.6257 11.3659 9.54956 11.5976C9.48326 11.3454 9.42366 11.0915 9.37081 10.8364ZM20.5861 13.4677C20.3319 13.0505 20.0683 12.6386 19.7954 12.2323C20.625 12.332 21.4198 12.4643 22.1662 12.626C21.9421 13.3084 21.6628 14.0217 21.3341 14.7531C21.0938 14.3199 20.8444 13.8914 20.5861 13.4677ZM16.0125 9.23546C16.5248 9.76279 17.0379 10.3515 17.5425 10.9903C16.5188 10.9443 15.4933 10.9441 14.4696 10.9897C14.9747 10.3568 15.4922 9.76887 16.0125 9.23546ZM11.4096 13.4748C11.1545 13.8951 10.9098 14.321 10.6756 14.7522C10.3522 14.0234 10.0755 13.3067 9.84948 12.6147C10.5913 12.457 11.3824 12.3281 12.2066 12.2303C11.9307 12.6391 11.665 13.0541 11.4096 13.4748ZM12.2303 19.7807C11.3787 19.6904 10.5758 19.5681 9.83414 19.4147C10.0637 18.7103 10.3465 17.9784 10.6769 17.234C10.912 17.6655 11.1578 18.0916 11.4139 18.5121C11.6774 18.9444 11.9502 19.3678 12.2303 19.7807ZM16.0432 22.7748C15.5167 22.2352 14.9916 21.6383 14.4788 20.9962C14.9767 21.0147 15.4842 21.0242 16 21.0242C16.53 21.0242 17.0538 21.0129 17.5694 20.9911C17.0632 21.6447 16.552 22.2426 16.0432 22.7748ZM21.3445 17.196C21.6921 17.9486 21.985 18.6766 22.2176 19.369C21.4638 19.5324 20.6498 19.664 19.7922 19.7618C20.067 19.3479 20.3332 18.9288 20.5904 18.5049C20.852 18.074 21.1034 17.6376 21.3445 17.196ZM19.6283 17.9777C19.2345 18.6277 18.8185 19.2653 18.381 19.8896C17.5886 19.943 16.7944 19.9694 16 19.9691C15.1909 19.9691 14.4038 19.9451 13.646 19.8984C13.1971 19.2756 12.7732 18.6368 12.3751 17.9835C11.979 17.3336 11.609 16.6697 11.2659 15.9931C11.6081 15.3164 11.9771 14.6522 12.3719 14.0018L12.3718 14.0019C12.7665 13.3514 13.187 12.7154 13.6325 12.0952C14.4057 12.0396 15.1986 12.0106 15.9999 12.0106C16.8049 12.0106 17.5989 12.0399 18.3719 12.0959C18.8129 12.7151 19.2307 13.349 19.6247 13.9962C20.0208 14.6452 20.3946 15.3062 20.7455 15.9782C20.3982 16.6571 20.0256 17.324 19.6283 17.9777ZM21.9196 6.19377C22.7902 6.67082 23.1288 8.59457 22.5818 11.1173C22.5468 11.2783 22.5076 11.4422 22.465 11.6085C21.3862 11.3719 20.2148 11.196 18.9885 11.0866C18.2741 10.1201 17.5338 9.24135 16.7907 8.48061C16.9854 8.30225 17.1848 8.12851 17.3887 7.95956C19.3082 6.37257 21.1022 5.74596 21.9196 6.19377ZM16 13.7622C17.2822 13.7622 18.3217 14.7497 18.3217 15.9679C18.3217 17.1861 17.2822 18.1737 16 18.1737C14.7178 18.1737 13.6783 17.1861 13.6783 15.9679C13.6783 14.7497 14.7178 13.7622 16 13.7622Z" fill="#00D8FF"/>
</g>
<defs>
<clipPath id="clip0_1_34">
<rect width="26" height="22" fill="white" transform="translate(3 5)"/>
</clipPath>
</defs>
</svg>
