<svg width="32" height="32" viewBox="0 0 32 32" fill="none" xmlns="http://www.w3.org/2000/svg">
<path d="M23.4375 2H8.5625C4.93813 2 2 4.93813 2 8.5625V23.4375C2 27.0619 4.93813 30 8.5625 30H23.4375C27.0619 30 30 27.0619 30 23.4375V8.5625C30 4.93813 27.0619 2 23.4375 2Z" fill="#007ACC"/>
<path d="M8.19183 16.0929L8.18297 17.2395H11.8273V27.5951H14.4053V17.2395H18.0497V16.1151C18.0497 15.4928 18.0365 14.9729 18.0186 14.9595C18.0053 14.9418 15.7875 14.9328 13.0986 14.9373L8.20528 14.9507L8.19183 16.0929ZM24.5933 14.9181C25.3043 15.0959 25.8466 15.4115 26.3444 15.9269C26.6022 16.2026 26.9843 16.7048 27.0155 16.8248C27.0243 16.8603 25.8066 17.6781 25.0688 18.1359C25.0421 18.1537 24.9354 18.0381 24.8154 17.8604C24.4555 17.3359 24.0777 17.1092 23.4998 17.0692C22.651 17.0114 22.1043 17.4559 22.1088 18.1981C22.1088 18.4159 22.1399 18.5447 22.2288 18.7226C22.4154 19.1092 22.7621 19.3403 23.851 19.8114C25.8555 20.6737 26.7132 21.2426 27.2466 22.0514C27.8421 22.9536 27.9755 24.3937 27.571 25.4648C27.1266 26.6292 26.0243 27.4203 24.4732 27.6826C23.9932 27.767 22.8554 27.7537 22.3399 27.6604C21.2154 27.4603 20.1488 26.9048 19.491 26.1759C19.2332 25.8914 18.731 25.1492 18.7622 25.0958C18.7754 25.0781 18.891 25.007 19.0198 24.9315C19.1443 24.8604 19.6155 24.5892 20.0599 24.3314L20.8643 23.8647L21.0332 24.1137C21.2688 24.4736 21.7843 24.967 22.0955 25.1314C22.9887 25.6026 24.2155 25.5359 24.8199 24.9937C25.0777 24.7581 25.1843 24.5136 25.1843 24.1537C25.1843 23.8292 25.1443 23.687 24.9754 23.4425C24.7577 23.1315 24.3133 22.8692 23.051 22.3225C21.6066 21.7003 20.9843 21.3137 20.4155 20.7003C20.0866 20.3448 19.7754 19.7758 19.6466 19.3003C19.5399 18.9048 19.5132 17.9136 19.5977 17.5136C19.8954 16.1181 20.9488 15.1448 22.4688 14.8558C22.9622 14.7625 24.1087 14.7981 24.5933 14.9181Z" fill="white"/>
</svg>
