<svg width="32" height="32" viewBox="0 0 32 32" fill="none" xmlns="http://www.w3.org/2000/svg">
<path d="M2 9C2 5.13401 5.13401 2 9 2H23C26.866 2 30 5.13401 30 9V23C30 26.866 26.866 30 23 30H9C5.13401 30 2 26.866 2 23V9Z" fill="#0071F9"/>
<path d="M6.72266 10.5213H9.93332C10.036 15.86 12.388 18.1187 14.2547 18.5853V10.5213H17.2693V15.1227C19.108 14.9267 21.0493 12.8267 21.7027 10.512H24.708C24.463 11.7102 23.9736 12.845 23.2702 13.8455C22.5668 14.846 21.6646 15.6906 20.62 16.3267C21.7858 16.9067 22.8153 17.7273 23.6406 18.7345C24.466 19.7416 25.0683 20.9123 25.408 22.1693H22.0947C21.3853 19.9573 19.612 18.24 17.2693 18.0067V22.1693H16.896C10.512 22.1693 6.87199 17.8013 6.72266 10.5213Z" fill="white"/>
</svg>
