<svg width="32" height="32" viewBox="0 0 32 32" fill="none" xmlns="http://www.w3.org/2000/svg">
<path d="M23.4375 2H8.5625C4.93813 2 2 4.93813 2 8.5625V23.4375C2 27.0619 4.93813 30 8.5625 30H23.4375C27.0619 30 30 27.0619 30 23.4375V8.5625C30 4.93813 27.0619 2 23.4375 2Z" fill="white"/>
<mask id="mask0_1_63" style="mask-type:alpha" maskUnits="userSpaceOnUse" x="4" y="4" width="23" height="24">
<path fill-rule="evenodd" clip-rule="evenodd" d="M20.3097 26.9987C20.4927 27.0679 20.6885 27.0997 20.8848 27.0924C21.0811 27.0851 21.2737 27.0388 21.4507 26.9563L26.186 24.7489C26.4299 24.6351 26.6356 24.457 26.7796 24.235C26.9236 24.013 27 23.7562 27 23.494V8.52678C27.0001 8.26456 26.9237 8.00765 26.7797 7.78562C26.6357 7.56359 26.4299 7.38546 26.186 7.27172L21.4507 5.06466C21.1832 4.93994 20.8822 4.89888 20.5895 4.94715C20.2967 4.99543 20.0267 5.13066 19.8168 5.33413L10.7516 13.346L6.80318 10.4423C6.62504 10.3113 6.40521 10.2449 6.18181 10.2545C5.95841 10.2641 5.74552 10.3491 5.58005 10.4948L4.31362 11.6108C4.21492 11.6978 4.13605 11.8037 4.08205 11.9219C4.02805 12.0401 4.0001 12.1679 4 12.2971C3.9999 12.4264 4.02764 12.5542 4.08146 12.6724C4.13528 12.7907 4.21398 12.8968 4.31254 12.9839L7.73684 16.0103L4.31272 19.0369C4.21422 19.124 4.13556 19.2301 4.08178 19.3483C4.02799 19.4665 4.00026 19.5944 4.00037 19.7236C4.00047 19.8528 4.0284 19.9805 4.08236 20.0987C4.13633 20.2169 4.21516 20.3228 4.3138 20.4098L5.58023 21.5258C5.74568 21.6715 5.95856 21.7566 6.18196 21.7662C6.40536 21.7758 6.6252 21.7094 6.80336 21.5785L10.7518 18.675L19.817 26.6866C19.9573 26.8225 20.1249 26.9288 20.3097 26.9987ZM21.2534 10.9523L14.3752 16.0103L21.2536 21.0685L21.2534 10.9523Z" fill="white"/>
</mask>
<g mask="url(#mask0_1_63)">
<path d="M26.1863 7.27537L21.4472 5.06466C21.1795 4.93978 20.8784 4.89863 20.5855 4.94691C20.2927 4.99519 20.0225 5.13051 19.8126 5.33412L4.29878 19.0369C4.2002 19.124 4.12148 19.23 4.06764 19.3483C4.01381 19.4665 3.98606 19.5943 3.98616 19.7236C3.98626 19.8528 4.01422 19.9806 4.06823 20.0988C4.12225 20.2169 4.20114 20.3229 4.29985 20.4098L5.56701 21.5258C5.73251 21.6717 5.94553 21.7568 6.16909 21.7665C6.39265 21.7761 6.61263 21.7096 6.79086 21.5785L25.4731 7.84859C26.0998 7.388 27.0001 7.82109 27.0001 8.58317V8.52991C27.0001 8.26777 26.9237 8.01095 26.7797 7.78899C26.6358 7.56702 26.4301 7.38911 26.1863 7.27537Z" fill="#0065A9"/>
<g filter="url(#filter0_d_1_63)">
<path d="M26.1862 24.7454L21.4471 26.9558C21.1795 27.0807 20.8784 27.1219 20.5855 27.0737C20.2927 27.0255 20.0225 26.8902 19.8125 26.6866L4.2987 12.9837C4.20012 12.8966 4.1214 12.7906 4.06757 12.6723C4.01374 12.5541 3.98598 12.4263 3.98608 12.297C3.98619 12.1678 4.01414 12.04 4.06816 11.9218C4.12217 11.8037 4.20106 11.6977 4.29978 11.6108L5.56693 10.4948C5.73243 10.3489 5.94545 10.2637 6.16901 10.2541C6.39257 10.2445 6.61256 10.311 6.79078 10.4421L25.473 24.1718C26.0998 24.6326 27 24.1995 27 23.4374V23.4907C27 23.7528 26.9236 24.0096 26.7797 24.2316C26.6357 24.4536 26.43 24.6317 26.1862 24.7454Z" fill="#007ACC"/>
</g>
<g filter="url(#filter1_d_1_63)">
<path d="M21.4473 26.9563C21.1796 27.0809 20.8784 27.1219 20.5856 27.0736C20.2927 27.0253 20.0226 26.8901 19.8125 26.6866C20.343 27.2005 21.25 26.8365 21.25 26.1098V5.91065C21.25 5.1839 20.343 4.81992 19.8125 5.33395C20.0226 5.13049 20.2927 4.99527 20.5856 4.94697C20.8784 4.89867 21.1796 4.93967 21.4473 5.06431L26.1855 7.27189C26.4295 7.38555 26.6354 7.56366 26.7795 7.78569C26.9236 8.00773 27 8.26467 27 8.52695V23.494C27 23.7563 26.9236 24.0132 26.7795 24.2352C26.6354 24.4573 26.4295 24.6354 26.1855 24.749L21.4473 26.9563Z" fill="#1F9CF0"/>
</g>
<path opacity="0.25" fill-rule="evenodd" clip-rule="evenodd" d="M20.2959 26.999C20.4789 27.0681 20.6746 27.0999 20.8708 27.0926C21.0671 27.0853 21.2597 27.039 21.4367 26.9565L26.172 24.7491C26.4159 24.6354 26.6217 24.4572 26.7657 24.2352C26.9097 24.0132 26.986 23.7563 26.986 23.494V8.52701C26.986 8.26479 26.9097 8.00788 26.7657 7.78585C26.6217 7.56382 26.4159 7.38568 26.172 7.27195L21.4367 5.06489C21.1691 4.94017 20.8682 4.89911 20.5754 4.94738C20.2827 4.99566 20.0127 5.13089 19.8028 5.33435L10.7376 13.3462L6.78916 10.4427C6.61102 10.3117 6.3912 10.2453 6.16779 10.2549C5.94439 10.2645 5.73151 10.3495 5.56603 10.4952L4.2996 11.6112C4.20093 11.6982 4.12208 11.8041 4.0681 11.9223C4.01411 12.0405 3.98617 12.1683 3.98607 12.2975C3.98597 12.4267 4.0137 12.5546 4.06751 12.6728C4.12131 12.7911 4.19999 12.8972 4.29852 12.9843L7.72282 16.0105L4.2987 19.0369C4.20014 19.124 4.12144 19.2301 4.06762 19.3484C4.01381 19.4666 3.98606 19.5945 3.98616 19.7237C3.98626 19.8529 4.01421 19.9807 4.06821 20.0989C4.12222 20.2171 4.20109 20.3231 4.29978 20.41L5.56621 21.526C5.73166 21.6717 5.94454 21.7568 6.16794 21.7664C6.39134 21.7761 6.61118 21.7097 6.78934 21.5787L10.738 18.675L19.8032 26.6869C19.9434 26.8227 20.1112 26.929 20.2959 26.999ZM21.2396 10.9523L14.3612 16.0105L21.2396 21.0685V10.9523Z" fill="url(#paint0_linear_1_63)"/>
</g>
<defs>
<filter id="filter0_d_1_63" x="-4.34792" y="1.91919" width="39.6819" height="33.5081" filterUnits="userSpaceOnUse" color-interpolation-filters="sRGB">
<feFlood flood-opacity="0" result="BackgroundImageFix"/>
<feColorMatrix in="SourceAlpha" type="matrix" values="0 0 0 0 0 0 0 0 0 0 0 0 0 0 0 0 0 0 127 0" result="hardAlpha"/>
<feOffset/>
<feGaussianBlur stdDeviation="4.167"/>
<feColorMatrix type="matrix" values="0 0 0 0 0 0 0 0 0 0 0 0 0 0 0 0 0 0 0.25 0"/>
<feBlend mode="overlay" in2="BackgroundImageFix" result="effect1_dropShadow_1_63"/>
<feBlend mode="normal" in="SourceGraphic" in2="effect1_dropShadow_1_63" result="shape"/>
</filter>
<filter id="filter1_d_1_63" x="11.4785" y="-3.40674" width="23.8555" height="38.8341" filterUnits="userSpaceOnUse" color-interpolation-filters="sRGB">
<feFlood flood-opacity="0" result="BackgroundImageFix"/>
<feColorMatrix in="SourceAlpha" type="matrix" values="0 0 0 0 0 0 0 0 0 0 0 0 0 0 0 0 0 0 127 0" result="hardAlpha"/>
<feOffset/>
<feGaussianBlur stdDeviation="4.167"/>
<feColorMatrix type="matrix" values="0 0 0 0 0 0 0 0 0 0 0 0 0 0 0 0 0 0 0.25 0"/>
<feBlend mode="overlay" in2="BackgroundImageFix" result="effect1_dropShadow_1_63"/>
<feBlend mode="normal" in="SourceGraphic" in2="effect1_dropShadow_1_63" result="shape"/>
</filter>
<linearGradient id="paint0_linear_1_63" x1="15.486" y1="4.92738" x2="15.486" y2="27.0937" gradientUnits="userSpaceOnUse">
<stop stop-color="white"/>
<stop offset="1" stop-color="white" stop-opacity="0"/>
</linearGradient>
</defs>
</svg>
